<?xml version="1.0" encoding="UTF-8"?><svg id="_レイヤー_1" xmlns="http://www.w3.org/2000/svg" viewBox="0 0 228.03 35.54"><defs><style>.cls-1{fill:#ffffff;}</style></defs><path class="cls-1" d="M0,3.51h14.48c5.86,0,10.24,2.57,10.24,7.98,0,3.97-2.03,6.18-5.55,7.35v.09c4.19.86,6.36,3.11,6.36,6.95,0,7.53-6.63,9.11-12.27,9.11H0V3.51ZM8.39,15.96h2.35c2.75,0,5.59-.68,5.59-3.34,0-2.89-2.71-3.16-5.5-3.16h-2.44v6.49ZM8.39,29.04h2.48c3.07,0,6.27-.45,6.27-3.65,0-3.43-3.29-3.74-6.18-3.74h-2.57v7.4Z"/><rect class="cls-1" x="29.05" y="3.36" width="8.12" height="5.95"/><rect class="cls-1" x="29.05" y="11.5" width="8.12" height="23.5"/><path class="cls-1" d="M40.23,23.27c0-7.8,5.91-12.31,13.67-12.31s13.67,4.51,13.67,12.31-5.91,12.27-13.67,12.27-13.67-4.51-13.67-12.27ZM59.18,23.27c0-3.52-1.53-6.63-5.28-6.63s-5.28,3.11-5.28,6.63,1.53,6.59,5.28,6.59,5.28-3.11,5.28-6.59Z"/><path class="cls-1" d="M70.18,27.24c2.17,1.17,5.19,2.08,8.66,2.08,2.66,0,5.19-.54,5.19-3.07,0-5.86-14.89-2.17-14.89-13.62,0-7.58,7.4-9.65,13.71-9.65,3.02,0,6,.45,8.12,1.17l-.54,6.5c-2.17-.99-4.6-1.44-6.99-1.44-2.12,0-5.64.18-5.64,2.93,0,5.1,14.89,1.67,14.89,13.04,0,8.16-6.86,10.37-13.85,10.37-2.93,0-6.59-.45-9.38-1.35l.72-6.95Z"/><path class="cls-1" d="M95.44,3.43h8.12v17.94h.09l6.77-9.88h8.89l-8.16,10.78,8.84,12.72h-9.83l-6.5-11.64h-.09v11.64h-8.12V3.43Z"/><rect class="cls-1" x="122.14" y="3.36" width="8.12" height="5.95"/><rect class="cls-1" x="122.14" y="11.5" width="8.12" height="23.5"/><path class="cls-1" d="M135.41,3.43h8.12v31.56h-8.12V3.43Z"/><path class="cls-1" d="M148.67,3.43h8.12v31.56h-8.12V3.43Z"/><path class="cls-1" d="M162.66,0h12.72c12.17,0,20.69,3.81,20.69,17.33s-8.76,17.63-20.69,17.63h-12.72V0ZM171.98,28.05h3.61c6.96,0,10.87-3.61,10.87-10.57s-4.06-10.57-10.87-10.57h-3.61v21.14Z"/><path class="cls-1" d="M204.18,16.58L194.07,0h10.87l5.86,11.52,6.01-11.52h10.22l-10.22,16.58,11.22,18.38h-11.12l-6.76-12.87-6.71,12.87h-10.57l11.32-18.38Z"/></svg>