<?xml version="1.0" encoding="UTF-8"?><svg id="_レイヤー_1" xmlns="http://www.w3.org/2000/svg" viewBox="0 0 141.73 141.73"><defs><style>.cls-1{fill:#231815;}</style></defs><path class="cls-1" d="M22.73,74.92s-.04.08-.06.11c-.21.41-.44.92-.44,1.75,0,.5,0,.75.01,1,0,.22.01.45.01.9,0,.66.1,1.05.2,1.43.05.18.07.24.07.47,0,.62.06.96.11,1.24.03.2.06.33.06.65,0,.83.22,1.34.35,1.64q.06.14.06.25c0,.96.78,1.74,1.74,1.74s1.74-.78,1.74-1.74c0-.83-.22-1.34-.35-1.64q-.06-.14-.06-.25c0-.62-.06-.97-.11-1.24-.03-.2-.06-.33-.06-.65,0-.66-.1-1.05-.2-1.43-.05-.18-.07-.24-.07-.47,0-.5,0-.75-.01-1,0-.22-.01-.45-.02-.93.02-.04.04-.08.06-.11.21-.41.44-.92.44-1.75s-.28-1.41-.47-1.74c.17.03.35.05.54.05.28,0,.38.02.57.06.28.06.66.15,1.32.15.94,0,1.52-.33,1.82-.51.04-.02.07-.04.07-.04h1.89c.67,0,1.06-.1,1.34-.17.19-.04.28-.06.55-.06.71,0,1.15-.13,1.53-.27.1-.04.15-.05.21-.06.32.27.97.81,2.06.81.96,0,1.74-.78,1.74-1.74,0-.9-.68-1.64-1.56-1.73-.31-.27-.96-.82-2.08-.82-.71,0-1.15.13-1.53.27-.17.06-.19.07-.37.07-.67,0-1.06.09-1.34.16-.19.04-.28.06-.55.06h-1.89c-.94,0-1.52.34-1.82.52-.04.02-.07.04-.07.04-.28,0-.38-.02-.57-.06-.25-.06-.6-.13-1.16-.14-.06-.04-.11-.08-.16-.12-1.66-1.22-2.81-.5-3.34.04-1.08,1.09-.92,2.23-.83,2.85.02.15.05.31.05.5,0,.96.35,1.54.54,1.85l.04.08Z"/><path class="cls-1" d="M58.81,70.08c-.92-.93-1.49-1.11-2.57-1.11h-.33c-.28,0-.38-.02-.57-.06-.28-.06-.66-.15-1.32-.15-.94,0-1.52.33-1.82.51-.04.02-.07.05-.07.04h-1.89c-.67,0-1.06.1-1.34.17-.19.04-.28.06-.55.06-.71,0-1.15.13-1.53.27-.1.04-.15.05-.21.06-.32-.27-.97-.8-2.06-.8-.96,0-1.74.78-1.74,1.74,0,.9.68,1.64,1.56,1.73.31.27.96.82,2.08.82.71,0,1.15-.13,1.53-.27.17-.06.19-.07.37-.07.67,0,1.06-.09,1.34-.16.19-.04.28-.06.55-.06h1.89c.95,0,1.52-.34,1.83-.52l.07-.04c.28,0,.38.02.57.06.23.05.54.12,1.02.14-.03.17-.05.35-.05.54,0,.96.35,1.54.54,1.85l.04.08s-.04.08-.06.11c-.21.41-.44.92-.44,1.75,0,.5,0,.75.01,1,0,.22.01.45.01.9,0,.66.1,1.05.2,1.43.05.18.07.24.07.47,0,.62.06.96.11,1.24.03.2.06.33.06.65,0,.83.22,1.34.35,1.64q.06.14.06.25c0,.96.78,1.74,1.74,1.74s1.74-.78,1.74-1.74c0-.83-.22-1.34-.35-1.64q-.06-.14-.06-.25c0-.62-.06-.97-.11-1.24-.03-.2-.06-.33-.06-.65,0-.66-.1-1.05-.2-1.43-.05-.18-.07-.24-.07-.47,0-.5,0-.75-.01-1,0-.22-.01-.45-.02-.93.02-.04.04-.08.06-.11.21-.41.44-.92.44-1.75,0-.93-.33-1.5-.52-1.82.99-1.44.14-2.56-.28-2.99Z"/><path class="cls-1" d="M60.08,102.59c-.02-.15-.05-.31-.05-.5,0-.96-.35-1.54-.54-1.85l-.04-.08s.04-.08.06-.11c.21-.41.44-.92.44-1.75,0-.5,0-.75-.01-1,0-.22-.01-.45-.01-.9,0-.66-.1-1.05-.2-1.43-.05-.18-.07-.24-.07-.47,0-.62-.06-.96-.11-1.24-.03-.2-.06-.33-.06-.65,0-.83-.22-1.34-.35-1.64q-.06-.14-.06-.25c0-.96-.78-1.74-1.74-1.74s-1.74.78-1.74,1.74c0,.83.22,1.34.35,1.64q.06.14.06.25c0,.62.06.96.11,1.24.03.2.06.33.06.65,0,.66.1,1.05.2,1.43.05.18.07.24.07.47,0,.5,0,.75.01,1,0,.22.01.45.02.93-.02.04-.04.08-.06.11-.21.41-.44.92-.44,1.75s.28,1.4.47,1.74c-.17-.03-.35-.05-.54-.05-.28,0-.38-.02-.57-.06-.28-.06-.66-.15-1.32-.15-.94,0-1.52.33-1.82.51-.04.02-.07.05-.07.04h-1.89c-.67,0-1.06.1-1.34.17-.19.04-.28.06-.55.06-.71,0-1.15.13-1.53.27-.1.04-.15.05-.21.06-.32-.27-.97-.81-2.06-.81-.96,0-1.74.78-1.74,1.74,0,.9.68,1.64,1.56,1.73.31.27.96.82,2.08.82.71,0,1.15-.13,1.53-.27.17-.06.19-.07.37-.07.67,0,1.06-.09,1.34-.16.19-.04.28-.06.55-.06h1.89c.95,0,1.52-.34,1.83-.52l.07-.04c.28,0,.38.02.57.06.25.06.6.13,1.16.14.06.04.11.08.16.12,1.66,1.22,2.8.5,3.34-.04,1.08-1.09.92-2.23.83-2.85Z"/><path class="cls-1" d="M37.83,102.54c-.31-.27-.96-.82-2.08-.82-.71,0-1.15.13-1.53.27-.17.06-.19.07-.37.07-.67,0-1.06.09-1.34.16-.19.04-.28.06-.55.06h-1.89c-.94,0-1.52.34-1.83.52-.04.02-.07.05-.07.04-.28,0-.38-.02-.57-.06-.23-.05-.54-.12-1.02-.14.03-.17.05-.35.05-.54,0-.96-.35-1.54-.54-1.85l-.04-.08s.04-.08.06-.11c.21-.41.44-.92.44-1.75,0-.5,0-.75-.01-1,0-.22-.01-.45-.01-.9,0-.66-.1-1.05-.2-1.43-.05-.18-.07-.24-.07-.47,0-.62-.06-.96-.11-1.24-.03-.2-.06-.33-.06-.65,0-.83-.22-1.34-.35-1.64q-.06-.14-.06-.25c0-.96-.78-1.74-1.74-1.74s-1.74.78-1.74,1.74c0,.83.22,1.34.35,1.64q.06.14.06.25c0,.62.06.96.11,1.24.03.2.06.33.06.65,0,.66.1,1.05.2,1.43.05.18.07.24.07.47,0,.5,0,.75.01,1,0,.22.01.45.02.93-.02.04-.04.08-.06.11-.21.41-.44.92-.44,1.75,0,.93.33,1.5.52,1.82-.99,1.44-.14,2.56.28,2.99.95.95,1.55,1.13,2.66,1.11h.24c.28,0,.38.02.57.06.28.06.66.15,1.32.15.94,0,1.52-.33,1.83-.51.04-.02.07-.04.07-.04h1.89c.67,0,1.06-.1,1.34-.17.19-.04.28-.06.55-.06.71,0,1.15-.13,1.53-.27.1-.04.15-.05.21-.06.32.27.97.81,2.06.81.96,0,1.74-.78,1.74-1.74,0-.9-.68-1.64-1.56-1.73Z"/><path class="cls-1" d="M43.94,91.77c.15-.14.22-.21.47-.35.35-.21.59-.37.79-.51.24-.17.27-.19.59-.28.21-.06.43-.05.7-.05.5,0,1.36.02,2.04-.64.3-.3.66-.83.66-1.7,0-.92-.47-1.45-.75-1.68-.8-.67-1.76-.48-2.33-.38-.1.02-.24.05-.34.06-.27-.16-.43-.26-.59-.36-.19-.12-.38-.24-.71-.43-.12-.45-.38-1.33-1.41-1.93-1.01-.58-1.89-.38-2.36-.25-.02-.02-.05-.06-.08-.1-.26-.34-.57-.7-1.19-1.07,0-.02-.02-.03-.03-.05-.15-.27-.5-.92-1.33-1.15-.86-.24-1.58.17-1.81.3-.67.38-1.06.9-1.16,1.54-.14.88.36,1.49.6,1.76,0,.02-.02.05-.04.09-.13.31-.36.82-.36,1.67s.24,1.39.38,1.71q.07.15.07.26c0,.19-.01.23-.07.4-.14.39-.27.83-.27,1.56,0,.68.1,1.09.21,1.47.04.14.06.21.07.33-.05.07-.1.13-.15.2-.3.39-.86,1.11-.67,2.08.07.35.3,1.01,1.1,1.47.36.21.79.37,1.27.37.62,0,1.32-.28,2.03-1.09.09-.11.21-.25.27-.28.86-.5,1.19-1.12,1.36-1.46.01-.03.03-.06.03-.06.13-.07.13-.07.31-.1.43-.06.92-.15,1.58-.53.6-.35.9-.63,1.12-.83ZM41.55,89.25c-.14.14-.22.21-.46.35-.13.08-.13.08-.32.1-.43.06-.91.15-1.58.53-.1.06-.2.12-.29.18,0-.06,0-.12,0-.21,0-.19.01-.23.07-.4.14-.39.27-.83.27-1.56,0-.87-.24-1.39-.38-1.7q-.07-.15-.07-.26s0-.05,0-.07c.1.07.21.14.33.21.83.48,1.59.42,2.09.32.16.48.49,1.15,1.32,1.63.04.02.08.05.12.07-.59.34-.88.62-1.09.82Z"/><path class="cls-1" d="M127.96,121.79c-.02-.38-.04-.56-.21-1.35-.09-.44-.26-.8-.42-1.11-.07-.15-.14-.29-.19-.41.01-.05.02-.1.04-.15.11-.46.27-1.15.01-1.92-.06-.17-.11-.34-.16-.52-.12-.39-.24-.8-.41-1.2-.27-.67-.79-1.08-1.13-1.35l-.1-.07s0-.06,0-.09c.01-.45.03-1.12-.33-1.79-.25-.47-.59-.8-.85-1.07-.06-.06-.12-.12-.17-.18,0-.04,0-.08,0-.11.03-.54.09-1.34-.43-2.08-.29-.4-.63-.71-.91-.95-.16-.14-.32-.28-.4-.38-.57-.71-1.38-.84-1.94-.92-.12-.44-.31-1.05-.83-1.55-.36-.35-.76-.58-1.08-.76-.13-.07-.25-.14-.34-.21-.03-.06-.05-.13-.08-.19-.17-.43-.44-1.08-1.06-1.53-.48-.36-1.01-.5-1.39-.61-.12-.04-.31-.09-.36-.11-.58-.37-1.17-.44-1.6-.48,0,0-.02,0-.02,0-.22-.51-.55-1.28-1.38-1.69-.81-.39-1.59-.19-2.12-.05-.06.02-.12.03-.18.05-.3-.11-.59-.19-.85-.26-.2-.06-.4-.11-.6-.18-.45-.16-.89-.29-1.35-.42l-.36-.1c-.09-.03-.26-.12-.42-.2-.27-.14-.6-.32-1-.44-.04-.04-.08-.09-.12-.14-.34-.38-.87-.95-1.71-1.12-.97-.18-1.7.33-2.2.7,0,0,0,0-.01,0,.2-.35.36-.81.36-1.4,0-.8-.19-1.29-.31-1.58-.01-.04-.03-.07-.04-.12,0,0,0-.03,0-.11,0-.21.01-.26.06-.42.07-.27.19-.68.19-1.38,0-.6-.06-.93-.1-1.2-.03-.19-.05-.3-.05-.6,0-1.03-.45-1.65-.68-1.97-.01-.15-.05-.28-.09-.42.1-.1.18-.21.26-.29.05-.06.1-.12.15-.17.45-.19.79-.45,1.07-.66.07-.05.15-.12.22-.17.05,0,.11.01.16.02.49.06,1.21.15,1.94-.23.17-.09.33-.17.5-.25.4-.19.79-.39,1.16-.61.61-.37.94-.91,1.17-1.3.05-.08.09-.15.14-.22.1-.06.24-.13.39-.2.34-.16.76-.36,1.17-.69.36-.29.64-.6.89-.88.13-.15.27-.3.41-.43l.19-.18c.34-.32.68-.64,1.01-.98.07-.02.14-.04.21-.06.47-.14,1.19-.35,1.71-.99.59-.72.56-1.56.54-2.12,0-.06,0-.11,0-.17.05-.07.1-.13.15-.2.22-.29.43-.58.63-.89.06-.03.12-.06.18-.09.46-.22,1.17-.56,1.56-1.33.38-.73.29-1.47.23-1.96,0-.03,0-.06-.01-.09.03-.02.05-.05.08-.07.33-.31.79-.74,1.03-1.41.07-.19.15-.37.24-.56.16-.35.34-.75.47-1.2l.13-.46c.13-.45.27-.92.36-1.37.15-.71-.03-1.32-.16-1.76-.03-.09-.06-.18-.08-.27.03-.16.07-.32.11-.49.06-.22.11-.46.16-.72.12-.02.23-.03.44-.03.65,0,1-.06,1.29-.11.21-.04.33-.06.66-.06.06.01.1.04.14.06,1.17.48,2.2.26,3.06-.66,1.02-1.09,1.04-1.93.98-2.77,0-.13-.02-.29-.02-.49,0-.59-.02-.89-.04-1.18-.02-.23-.03-.46-.03-.91,0-.21.03-.36.04-.5.11-.78.14-1.64-.76-2.75-.47-.57-1.5-1.42-3.12-.65-.02.01-.05.02-.08.04-.56,0-.89.07-1.13.12-.13.03-.21.04-.37.05-.32-.21-.89-.56-1.83-.56-.1,0-.18.01-.27.02-.02-.37-.05-.79-.21-1.25-.3-.83-.97-1.26-1.41-1.54-.02-.01-.04-.02-.06-.04,0-.04,0-.08,0-.12-.02-.39-.06-.92-.31-1.46,0-.08,0-.17,0-.26,0-.46-.02-1.15-.41-1.8-.31-.5-.71-.83-1.03-1.1-.11-.09-.27-.22-.31-.27-.12-.17-.22-.34-.33-.52-.19-.33-.41-.69-.7-1.05-.54-.66-1.28-.85-1.77-.98-.04-.01-.09-.02-.13-.03-.04-.07-.08-.14-.12-.21-.18-.33-.43-.79-.86-1.19-.41-.38-.84-.6-1.19-.77-.08-.04-.17-.08-.24-.12-.01-.04-.03-.09-.04-.14-.16-.49-.4-1.22-1.1-1.72-.71-.5-1.5-.47-2.02-.45,0,0,0,0-.01,0,0,0,0-.01-.01-.02-.24-.38-.61-.95-1.28-1.29-.09-.05-.25-.17-.41-.3-.3-.24-.68-.54-1.17-.75-.4-.17-.83-.32-1.26-.46-.17-.06-.34-.11-.51-.17-.81-.29-1.54-.06-2.03.09-.06.02-.13.04-.19.06-.36-.09-.72-.16-1.08-.23l-.46-.09c-.1-.04-.2-.1-.3-.16-.35-.21-.84-.49-1.39-.56-.1-.04-.19-.1-.29-.16-.39-.22-.92-.52-1.61-.57-.51-.04-.99.05-1.37.12-.53.1-.8.06-1.12.03-.38-.04-.8-.08-1.26-.05-.2.01-.41,0-.61,0-.38,0-.81-.01-1.26.05-.75.1-1.29.53-1.65.81-.07.05-.13.1-.19.15-.56.12-1.11.25-1.66.4-.5.14-.9.37-1.23.55-.17.1-.33.19-.44.23-.19.07-.38.12-.57.18-.35.1-.75.22-1.16.4-.18.08-.36.13-.54.19-.02,0-.04.01-.05.02-.21-.11-.45-.19-.7-.19h-.03c-.75,0-1.37.5-1.58,1.19-.14.07-.28.14-.41.22-.1.04-.22.05-.34.08-.42.08-1,.19-1.54.57-.43.3-.74.66-.99.95-.13.15-.26.3-.35.38-.09.08-.27.17-.45.27-.33.18-.75.41-1.12.76-.69.64-.77,1.48-.82,2.04,0,.04,0,.09-.01.13-.07.07-.15.13-.22.19-.21.18-.45.38-.68.63-.05.01-.11.02-.17.04-.26.06-.59.13-.92.27-.19-.25-.38-.43-.56-.59l-.11-.14c-.17-.34-.24-.52-.31-.7-.1-.24-.19-.48-.42-.94-.24-.49-.38-.73-.53-.96-.09-.15-.19-.3-.35-.63v-.11c-.01-.44-.05-.96-.39-1.67-.23-.47-.36-.7-.49-.93-.09-.16-.19-.32-.35-.66-.21-.43-.32-.64-.43-.86-.1-.18-.19-.37-.38-.74-.18-.38-.27-.57-.36-.76-.1-.22-.19-.43-.4-.85-.35-.72-.75-1.08-1.09-1.36l-.07-.07c-.06-.13-.06-.13-.08-.29-.05-.39-.12-.83-.42-1.46l-.77-1.61c-.09-.18-.1-.23-.13-.4-.05-.28-.13-.7-.43-1.32-.23-.47-.36-.7-.5-.93-.09-.16-.19-.32-.35-.65-.3-.62-.57-.94-.75-1.16-.11-.13-.15-.17-.24-.36-.11-.22-.13-.3-.17-.47-.08-.34-.18-.68-.44-1.22-.15-.32-.21-.48-.28-.65-.09-.25-.19-.51-.42-1-.17-.34-.24-.52-.31-.7-.1-.24-.19-.48-.41-.94-.39-.8-1.27-1.2-2.1-1.01-.46-.09-1.01-.04-1.65.25l-.05-.02c-.4-.19-.89-.39-1.69-.39-.35,0-.52-.02-.69-.04-.27-.03-.55-.06-1.09-.06s-.83.03-1.1.06c-.17.02-.34.04-.68.04-.69,0-1.09.11-1.37.18-.16.04-.21.06-.42.06s-.25-.01-.41-.06c-.27-.07-.68-.18-1.37-.18s-1.09.11-1.46.23c-.15.05-.17.05-.32.05-.48,0-.72,0-.96.02-.21,0-.41.01-.82.01-.47,0-.7,0-.94.01-.21,0-.42.01-.84.01-.62,0-.99.08-1.34.17-.11.03-.17.04-.25.05-.33-.25-.96-.68-1.96-.68-.81,0-1.31.21-1.71.41l-.03.05-.09-.04c-.41-.2-.91-.42-1.73-.42-.59,0-.94.06-1.27.13-.17.04-.25.05-.5.05-.31,0-.47-.02-.62-.04-.26-.04-.58-.08-1.15-.08-.53,0-.79.02-1.05.05-.18.02-.36.03-.72.03-.74,0-1.2.16-1.57.3-.04.01-.07.03-.11.04-.03,0-.06,0-.1,0-.54,0-.82.03-1.09.06-.17.02-.35.04-.69.04-.17,0-.2,0-.36-.05-.36-.1-.76-.21-1.42-.21-.59,0-.93.06-1.27.13-.15.03-.23.05-.39.05-.04-.02-.08-.04-.11-.06-1.59-.89-2.66-.29-3.28.36-1.16,1.22-.78,2.46-.62,2.99.05.16.07.25.07.31,0,.95.32,1.54.5,1.85l.02.04c0,.31-.02.44-.05.63-.04.27-.09.61-.09,1.22,0,.57.03.86.07,1.15.02.17.04.33.04.64h0c-.21.33-.59.93-.59,1.95,0,.41-.01.61-.03.81-.02.26-.03.53-.03,1.05,0,.62.06.96.1,1.23.03.2.05.32.05.63,0,.82.2,1.32.32,1.62q.05.14.05.25t-.06.3c-.14.39-.28.83-.28,1.57,0,.33-.02.46-.05.66-.04.27-.09.6-.09,1.21,0,.92.32,1.51.53,1.84-.51.89-.5,1.63-.28,2.22.06.65.45,1.26,1.09,1.55.35.16.65.23.93.27.23.06.45.08.65.08.15,0,.28-.01.4-.03.16.08.26.14.38.22.28.18.54.35,1.05.58.51.23.8.32,1.04.39.14.04.28.09.51.19.21.33.59.92,1.49,1.32.35.16.52.25.68.33.22.12.45.24.91.45.55.25.89.33,1.14.4.18.05.28.07.54.19.69.31,1.19.35,1.6.36l.17.03c.07.03.1.05.1.05.03.03.06.06.09.08.28.28.64.6,1.3.9.27.12.37.18.53.29.22.14.5.32,1.04.56.84.37,1.49.31,1.96.24.09.04.13.08.23.16.28.23.6.48,1.18.74.14.06.16.08.28.18.28.25.61.52,1.23.8.45.2.68.29.91.38.19.07.37.14.73.31.56.25.91.34,1.17.4.17.04.27.07.52.18.67.3,1.15.35,1.55.37.04,0,.08,0,.11,0,.03,0,.05.02.08.02l.07.08c.29.34.65.73,1.39,1.06l1.62.72c.6.27,1.01.34,1.37.39.16.02.19.03.35.1.26.12.36.18.51.28.28.18.54.35,1.05.58.23.1.29.15.43.25.28.2.57.4,1.1.64.59.26.98.34,1.34.39.16.03.2.03.38.11.54.24.86.33,1.11.4.18.05.29.08.56.2.31.14.46.22.6.31.24.14.47.28.97.5.44.2.73.29.96.35.03.35.07.69.12.98.03.17.06.33.08.49.02.16.01.33,0,.5,0,.43-.01.96.14,1.53.17.64.36,1.32.62,1.96.31.74.88,1.18,1.25,1.47.07.05.14.1.2.16.36.56.75,1,1.1,1.39l.1.12c.11.12.2.25.29.37.26.35.59.78,1.08,1.16.12.09.23.18.34.28.36.3.81.68,1.38.96.67.33,1.35.57,2.04.73.14.03.28.08.42.12.47.14,1.06.32,1.74.32.35,0,.62-.03.84-.06-.04.45-.1,1.12.21,1.8.08.17.16.35.23.53.17.39.34.79.56,1.2.06.11.13.31.21.51.13.37.3.83.6,1.27.39.58.93.89,1.32,1.12.1.06.21.11.24.12l.2.25c.32.4.65.81.99,1.15.06.09.1.21.15.32.18.42.43.99.97,1.44l.33.28c.36.31.77.66,1.2.96.53.37,1.1.5,1.51.59.13.03.32.07.36.09.06.04.23.19.34.29.31.29.69.65,1.23.9.85.39,1.66.15,2.2-.01.03,0,.06-.02.09-.03.04.03.07.06.11.08.32.24.77.58,1.37.75.68.19,1.28.08,1.72-.01.05,0,.1-.02.16-.03.03.03.07.06.1.08.24.2.57.45.98.64,0,.1-.02.18-.05.29-.07.34-.14.69-.14,1.28,0,.29-.02.41-.05.59-.04.26-.1.6-.1,1.21,0,.71.16,1.17.32,1.55-.36.36-.89,1.02-.89,2.06,0,.55.04.87.08,1.12-.03,0-.05,0-.07,0-.38,0-.84-.01-1.34.1-.46.11-.85.27-1.19.42-.19.08-.38.17-.57.22-.2.05-.4.07-.6.1-.38.05-.8.1-1.25.25-.77.26-1.2.85-1.48,1.33-.54-.19-1.27-.38-2.05-.04-.2.09-.41.15-.61.21-.36.11-.77.23-1.17.44-.68.34-1.06.91-1.31,1.29-.05.08-.1.16-.15.22-.5.31-.83.73-1.07,1.04-.03.03-.05.07-.07.1-.03,0-.07,0-.1,0-.54-.04-1.34-.1-2.07.41-.37.26-.68.55-.96.8-.16.15-.32.29-.48.42-.39.3-.69.65-.93.94-.12.15-.25.3-.38.42-.34.29-.66.6-.97.91l-.39.38c-.39.37-.64.78-.84,1.11-.06.09-.12.2-.18.28-.06.02-.13.03-.2.05-.48.12-1.22.3-1.75.92-.48.56-.62,1.19-.73,1.65-.02.09-.04.18-.06.26-.32.44-.49.9-.62,1.24-.03.08-.06.17-.09.25-.07.03-.13.05-.2.08-.45.19-1.13.47-1.55,1.15-.39.63-.47,1.29-.53,1.72-.01.09-.02.17-.03.25-.36.69-.45,1.01-.52,1.37-.02.09-.04.19-.12.39-.34.86.08,1.83.94,2.17.86.34,1.83-.08,2.17-.94.17-.44.24-.71.29-.95.02-.11.04-.18.24-.55.25-.47.31-.94.36-1.31,0-.06.02-.14.03-.21,0,0,.02,0,.03,0,.45-.19,1.14-.48,1.61-1.15.27-.39.42-.79.53-1.11.06-.15.14-.38.19-.45.39-.51.52-1.07.61-1.48,0-.02.01-.05.02-.07,0,0,0,0,0,0,.47-.12,1.18-.29,1.73-.87.3-.32.51-.66.69-.94.11-.17.23-.37.31-.45l.43-.42c.26-.25.52-.52.8-.76.3-.25.53-.53.74-.77.17-.19.32-.38.45-.47.24-.18.46-.39.69-.6.13-.12.26-.24.39-.35.04,0,.09,0,.13.01.52.04,1.29.09,2.01-.36.48-.3.8-.71,1.03-1.01.08-.1.14-.2.18-.24.59-.33.93-.84,1.18-1.21.05-.07.09-.15.14-.21.15-.06.34-.12.54-.18.21-.06.41-.13.62-.2.05.02.09.04.14.05.53.19,1.34.49,2.21.16.83-.32,1.23-1.03,1.5-1.5.02-.03.04-.06.05-.1.1-.02.21-.03.32-.04.33-.04.7-.09,1.09-.2.33-.09.65-.22.97-.36.24-.1.47-.2.65-.24.09-.02.33-.02.52-.01.34,0,.77.01,1.22-.07.19-.04.44-.05.71-.06.3-.01.59-.03.89-.06.08.02.16.05.24.08.41.14.97.34,1.64.27.58-.06,1.05-.29,1.39-.46.11-.05.22-.12.27-.14.34-.02.68-.09,1.03-.16.25-.05.5-.1.68-.11.06.02.31.05.48.09.34.08.77.17,1.25.17.77,0,1.37-.38,1.77-.63.06-.04.12-.08.18-.12.44.01.88.03,1.31.06.06.04.12.08.17.13.36.26.85.61,1.52.71.08.04.16.09.24.14.34.21.8.49,1.41.58.81.12,1.45-.23,1.92-.56.31.32.74.68,1.34.83.1.02.28.12.46.21.28.15.62.33,1.04.45l.37.11c.4.11.78.22,1.16.36.27.09.54.17.8.25.25.07.49.13.73.23.64.27,1.26.18,1.73.08.2.45.52,1,1.13,1.34.55.31,1.09.37,1.49.41.08,0,.17.01.25.03.42.25.83.36,1.17.46.07.02.15.04.21.05.02.05.04.09.05.14.17.41.4.97.92,1.41.32.27.65.46.92.62.11.07.24.14.33.2.02.05.03.11.04.17.11.42.26,1,.73,1.51.6.66,1.41.77,1.95.84.04,0,.08.01.13.02.18.19.36.35.53.5.07.06.16.14.23.2,0,.04,0,.07,0,.11-.03.49-.08,1.24.35,1.92.25.4.54.7.78.93.07.07.16.16.22.23,0,.06,0,.13,0,.19-.01.43-.03,1.01.25,1.61.29.63.79,1.02,1.12,1.27.05.04.1.08.15.12.1.26.17.52.25.77.05.17.1.33.15.48-.01.08-.04.15-.05.23-.1.42-.23,1-.05,1.64.13.46.31.83.45,1.13.06.13.13.24.16.35.13.61.13.66.14.86,0,.14.02.31.05.61.08.86.81,1.51,1.66,1.51.05,0,.11,0,.16,0,.92-.09,1.59-.9,1.5-1.82-.02-.23-.03-.37-.04-.48ZM115.38,67.83l-.14.5c-.05.19-.17.44-.29.7-.11.24-.22.48-.31.72-.06.06-.13.12-.19.18-.3.28-.71.66-.97,1.24-.27.62-.22,1.25-.17,1.69-.42.21-1,.52-1.37,1.13-.18.29-.38.56-.58.83-.12.16-.23.32-.35.48-.43.61-.47,1.3-.46,1.81-.44.13-.98.33-1.43.81-.11.12-.23.23-.35.34-.1-.17-.21-.31-.31-.43.29-.33.67-.89.67-1.74,0-.4,0-.6.02-.8.01-.23.02-.47.02-.94,0-.67-.24-1.15-.49-1.49.07-.04.15-.08.22-.12.08-.01.15-.02.23-.03.48-.05,1.2-.13,1.87-.64.55-.42.99-.91,1.39-1.34l.1-.11c.45-.5.88-1.06,1.24-1.62.33-.51.48-1.02.59-1.43.04-.15.08-.3.14-.43.05-.1.13-.18.2-.28.22-.29.5-.66.7-1.15.04.34.12.64.19.89.02.08.05.16.07.24-.07.33-.17.66-.27.98ZM115.89,58.29s.04.06.06.09c0,.02-.02.04-.03.06-.09.21-.21.46-.29.74,0-.07,0-.14,0-.21,0-.31-.03-.69-.09-1.08.04.01.08.02.12.03.08.13.16.26.23.37ZM121.15,57.97c.19-.04.32-.05.58-.05,0,.04,0,.07,0,.11,0,.59.02.89.04,1.18.02.23.03.46.03.91,0,.05,0,.09,0,.13-.13-.01-.26-.02-.41-.02-.64,0-1,.06-1.29.11-.21.04-.33.06-.66.06-.14,0-.26,0-.38.01-.02-.05-.04-.11-.06-.16-.03-.08-.07-.16-.09-.24.02-.06.05-.12.08-.18.19-.42.47-1.05.38-1.79.17.03.35.05.55.05.61,0,.96-.07,1.21-.12ZM83.28,39.89c.25-.07.5-.15.75-.24.39-.14.71-.32.98-.47.18-.1.37-.21.47-.24.52-.14,1.03-.26,1.56-.37.66-.14,1.13-.5,1.48-.77.06-.04.11-.09.17-.13.18,0,.38,0,.6,0,.31,0,.61,0,.9-.01.19-.01.44.01.71.04.74.07,1.52.03,2.06-.07.16-.03.34-.06.46-.07.08.04.16.09.24.13.34.2.82.46,1.35.53.11.04.2.1.3.16.31.18.74.43,1.28.54l.56.11c.34.06.67.12,1,.22.76.21,1.44,0,1.89-.14.05-.02.1-.03.15-.05.11.04.21.07.32.11.33.11.67.22.98.36.09.04.28.19.43.31.22.17.49.39.81.57.04.06.08.13.12.19.23.36.55.86,1.12,1.21.6.36,1.23.38,1.71.37.15.44.38,1.01.91,1.45.36.29.72.47,1.02.62.13.07.33.17.38.21.04.05.14.22.21.35.17.3.37.68.7,1.03.53.57,1.22.75,1.67.86.04.01.09.02.13.03.09.13.18.29.27.45.15.26.31.51.47.75.29.4.63.69.91.92.07.06.16.13.22.19,0,.06,0,.11,0,.17,0,.43.02,1.01.3,1.59.02.09.02.2.02.3.02.37.06.88.29,1.41.32.74.94,1.13,1.35,1.39.02.01.03.02.05.03,0,.01,0,.02,0,.04-.38.01-.64.04-.89.08,0,0,0,0-.01,0-.03-.03-.07-.06-.09-.08-.07-.11-.1-.23-.15-.36-.16-.41-.37-.97-.82-1.47-.46-.5-.95-1.02-1.52-1.46-.6-.46-1.25-.59-1.72-.68-.11-.02-.22-.04-.3-.06-.61-.29-1.19-.36-1.62-.41-.1-.01-.2-.02-.3-.04-.05-.04-.1-.07-.15-.11-.4-.29-1.08-.78-2.01-.78s-1.47.3-1.87.54c-.26,0-.45,0-.61.02-.29-.3-.7-.49-1.15-.5-.07,0-.27-.08-.4-.13-.35-.13-.78-.28-1.31-.31-.67-.03-1.23.2-1.63.37-.08.03-.15.07-.23.09l-.35-.03c-.38-.03-.74-.06-1.1-.1-.07-.04-.14-.1-.21-.15-.35-.26-.83-.62-1.49-.73-.46-.08-.88-.06-1.21-.05-.17,0-.39.01-.47,0-.07-.02-.27-.13-.41-.21-.29-.17-.65-.38-1.11-.51-.54-.15-1.05-.13-1.42-.12-.09,0-.19.01-.27.01-.07-.05-.18-.15-.26-.22-.27-.24-.6-.53-1.05-.74-.27-.13-.54-.23-.81-.32-.26-.09-.48-.18-.64-.27-.24-.14-.49-.26-.72-.38-.26-.13-.48-.24-.62-.33-.04-.04-.14-.21-.2-.31-.16-.28-.37-.63-.7-.95-.45-.44-.99-.62-1.44-.72.04-.44.03-.96-.24-1.49-.17-.34-.27-.62-.37-.97.17-.06.35-.11.53-.17ZM73.74,46.85c.11-.14.29-.29.49-.46.23-.2.46-.4.68-.63.59-.63.67-1.42.72-1.94,0-.02,0-.03,0-.05.07-.04.15-.08.22-.12.29-.16.61-.34.93-.59.33-.26.57-.55.79-.8.11-.12.24-.27.32-.35.09-.03.19-.04.29-.06.37-.07.88-.17,1.38-.47.04-.03.09-.04.13-.07.1.3.21.61.38.98,0,.05-.01.09-.02.14-.07.55-.18,1.47.43,2.29.56.74,1.42.89,1.93.98.05,0,.11.02.16.03.02.04.05.08.07.12.21.37.51.87,1.06,1.28.39.29.79.49,1.14.66.17.08.35.17.53.27.41.24.81.38,1.16.51.18.07.38.13.54.21.02.01.03.03.05.04-.01,0-.02,0-.04,0-.62,0-.98.07-1.24.11-.18.03-.28.05-.56.05-.51,0-.76.02-1.02.03-.18.01-.37.02-.73.03,0,0,0,0-.02-.01-.31-.17-.87-.49-1.81-.49-.53,0-.79.02-1.05.05-.18.02-.37.03-.73.03-.7,0-1.12.12-1.5.25q-.15.05-.29.05c-.51,0-.76.02-1.01.03-.19.01-.39.02-.77.02-.62,0-.97.07-1.23.11-.16.03-.25.05-.46.05-.32-.2-.9-.56-1.88-.56-.19,0-.36.02-.52.04-.07-.14-.14-.27-.21-.38.03-.18.04-.36.05-.52.5-.12,1.16-.32,1.64-.9ZM58.8,29.36c.09.18.1.23.13.4.05.28.13.7.43,1.32l.77,1.62c.06.12.06.13.08.29.05.39.12.83.42,1.46.35.72.74,1.08,1.09,1.36l.07.07c.19.39.28.58.36.78.1.21.19.42.39.84.21.44.32.65.43.86.1.18.19.37.37.74.23.47.36.7.49.93.09.16.19.32.37.67v.11c.01.44.05.96.39,1.67.24.49.38.72.53.96.09.15.19.3.34.62.17.34.24.52.31.7.09.24.19.48.41.95.33.69.69,1.04,1.01,1.32l.11.14c.03.07.04.1.04.1,0,.04,0,.08.01.12.03.4.1.87.41,1.53-.1,0-.21.01-.37.01s-.33-.03-.5-.05c-.23-.03-.49-.06-.77-.07-.14-.15-.3-.32-.51-.5-.45-.38-.75-.55-1.05-.71-.15-.08-.22-.12-.46-.32l-.05-.1c-.19-.35-.44-.77-1-1.24-.35-.3-.53-.44-.71-.58-.16-.13-.32-.26-.64-.53-.68-.57-1.29-.7-1.73-.78-.17-.15-.24-.22-.34-.35-.16-.19-.39-.45-.84-.83-.09-.08-.17-.14-.25-.2.01-.47-.12-.99-.48-1.58-.09-.15-.12-.21-.14-.26-.07-.3-.06-.34-.04-.6.02-.24.05-.52.05-.93,0-.25.02-.33.06-.51.08-.36.16-.73.16-1.36,0-.48,0-.72,0-.96,0-.23,0-.46,0-.91q0-.14.06-.29c.14-.39.29-.84.29-1.58,0-.69-.11-1.1-.22-1.47-.05-.17-.06-.2-.06-.39,0-.49,0-.73,0-.97,0-.22,0-.45,0-.9,0-.64-.08-1.02-.17-1.38-.04-.18-.06-.25-.07-.48l.05-.1s0-.02.01-.03c.19.38.31.59.43.79.09.16.19.32.35.65ZM20.59,30.99c.02-.25.03-.5.03-.98h0c.21-.33.59-.94.59-1.95,0-.57-.03-.86-.07-1.15-.02-.18-.04-.36-.04-.72,0-.32.02-.45.05-.65.04-.27.09-.61.09-1.22,0-.84-.25-1.39-.43-1.72.58,0,.92-.06,1.25-.13.18-.04.26-.05.51-.05.17,0,.2,0,.36.05.36.1.76.21,1.42.21.54,0,.82-.03,1.09-.06.17-.02.35-.04.69-.04.73,0,1.19-.16,1.57-.3.04-.01.07-.03.11-.04.03,0,.06,0,.1,0,.53,0,.79-.02,1.05-.05.18-.02.36-.03.72-.03.31,0,.47.02.62.04.26.04.58.08,1.15.08s.94-.06,1.27-.13c.17-.04.25-.05.46-.07l.09.04c.41.2.91.42,1.73.42.78,0,1.26-.19,1.66-.38.34.25.95.63,1.9.63.62,0,.99-.08,1.34-.17.17-.04.22-.05.43-.05.47,0,.7,0,.94-.01.21,0,.42-.01.84-.01.48,0,.72,0,.96-.02.21,0,.41-.01.82-.01.68,0,1.09-.11,1.46-.23.15-.05.17-.05.32-.05.2,0,.24.01.41.05.27.07.68.18,1.37.18s1.09-.11,1.36-.18c.16-.04.21-.06.42-.06.55,0,.83-.03,1.1-.06.17-.02.34-.04.68-.04s.52.02.69.04c.27.03.54.05,1.09.05l.09.04c.4.19.89.39,1.69.39.03,0,.06,0,.08,0,0,.08-.03.15-.05.25-.1.37-.18.75-.18,1.4s.08,1.01.16,1.36c.04.18.06.25.07.5l-.05.1c-.21.42-.43.93-.43,1.77,0,.64.08,1.02.17,1.38.04.18.06.25.06.49,0,.49,0,.73,0,.97,0,.22,0,.45,0,.9,0,.69.11,1.1.22,1.47.05.17.06.2.06.39q0,.14-.06.29c-.14.39-.29.84-.29,1.58,0,.48,0,.72,0,.96,0,.23,0,.46,0,.91,0,.25-.02.33-.06.51-.08.36-.16.73-.16,1.36,0,.26-.02.43-.03.58-.04.38-.06.73.01,1.22-.23,0-.39.02-.55.03-.19.01-.39.02-.77.02-.56,0-.87.04-1.12.07-.17.02-.33.04-.66.04s-.48-.02-.64-.04c-.25-.03-.57-.08-1.14-.08-.75,0-1.21.16-1.59.32l-.1.04s-.05,0-.08,0c0,0-.01,0-.03-.02-.3-.16-.85-.45-1.76-.45-.6,0-.96.07-1.29.14-.17.04-.25.05-.49.05-.14,0-.15,0-.3-.05-.37-.12-.79-.24-1.48-.24-.59,0-.92.05-1.18.09-.19.03-.3.05-.6.05-.34,0-.51-.02-.68-.04-.28-.03-.55-.06-1.1-.06-.59,0-.92.05-1.18.09-.19.03-.3.05-.6.05-.64,0-1.04.09-1.38.19-.16.04-.2.05-.4.05-.25,0-.33-.02-.5-.05-.33-.07-.68-.13-1.27-.13-.29,0-.4-.02-.59-.05-.33-.05-.64-.1-1.2-.1-.66,0-1.06.1-1.41.2-.16.05-.19.05-.37.05l-1.77.02-.09-.04c-.4-.19-.9-.4-1.7-.4-.73,0-1.19.15-1.56.3-.04.01-.07.03-.11.04-.03,0-.06,0-.11,0-.62,0-.97.07-1.23.11-.18.03-.28.05-.55.05-.49,0-.74.01-.99.03-.13,0-.26.01-.44.02,0-.07,0-.15,0-.23,0-1.01-.38-1.61-.58-1.93h0c0-.29.02-.41.05-.59.04-.27.09-.6.09-1.21q0-.14.06-.3c.14-.39.28-.83.28-1.57,0-.82-.2-1.32-.32-1.62q-.05-.14-.05-.25c0-.62-.06-.96-.1-1.23-.03-.2-.05-.32-.05-.63,0-.41.01-.61.03-.81ZM59.42,52.94c-.45.57-.62,1.18-.75,1.63-.04.15-.1.35-.13.41-.08.15-.17.3-.26.44-.24.39-.54.87-.74,1.45-.05.11-.13.22-.2.33-.12.17-.25.38-.37.61-.23-.11-.36-.19-.49-.26-.24-.14-.47-.28-.98-.5-.54-.24-.86-.33-1.11-.4-.18-.05-.29-.08-.56-.2-.59-.26-.98-.34-1.34-.39-.16-.03-.2-.03-.38-.11-.23-.1-.29-.15-.43-.25-.28-.2-.57-.4-1.1-.64-.26-.12-.36-.18-.51-.28-.28-.18-.54-.35-1.05-.58-.6-.27-1-.34-1.37-.39-.16-.02-.19-.03-.35-.1l-1.61-.7-.07-.08c-.29-.34-.65-.73-1.39-1.06-.67-.3-1.15-.35-1.55-.37-.04,0-.08,0-.11,0-.03,0-.06-.02-.1-.04-.56-.25-.91-.34-1.17-.4-.18-.04-.27-.07-.51-.17-.45-.2-.68-.29-.91-.38-.19-.07-.37-.14-.73-.31-.14-.06-.16-.08-.28-.18-.28-.25-.61-.52-1.23-.8-.17-.08-.2-.1-.33-.21-.28-.23-.6-.48-1.19-.74-.84-.38-1.5-.31-1.96-.24-.19-.09-.28-.15-.41-.24-.22-.14-.5-.32-1.04-.57-.04-.02-.07-.03-.1-.05-.03-.03-.06-.06-.09-.08-.28-.28-.63-.6-1.3-.9-.69-.31-1.19-.35-1.6-.36l-.17-.03c-.55-.25-.89-.34-1.14-.4-.18-.05-.28-.07-.54-.19-.35-.16-.52-.25-.68-.33-.02-.01-.04-.02-.07-.03.26.07.56.11.93.11h1.78c.66,0,1.06-.11,1.41-.21.16-.05.19-.05.37-.05.29,0,.4.02.59.05.33.05.64.1,1.2.1.25,0,.33.02.5.05.33.07.68.13,1.27.13.64,0,1.04-.09,1.38-.19.16-.04.2-.05.4-.05.59,0,.92-.05,1.19-.09.19-.03.3-.05.59-.05.34,0,.51.02.68.04.28.03.55.06,1.1.06.59,0,.92-.05,1.18-.09.19-.03.3-.05.6-.05.14,0,.15,0,.3.05.37.12.79.24,1.48.24.6,0,.95-.07,1.29-.14.17-.04.24-.05.48-.05,0,0,.01,0,.03.02.3.16.85.45,1.76.45.75,0,1.21-.16,1.59-.32l.19-.04c.32,0,.48.02.64.04.25.03.57.08,1.14.08s.87-.04,1.12-.07c.17-.02.33-.04.66-.04.5,0,.75-.02,1-.03.19-.01.39-.02.68-.04.06.02.11.04.15.07.32.15.62.24.92.29.1.07.2.14.28.19.13.09.27.18.51.38.21.18.29.26.4.4.16.19.39.45.84.83.68.57,1.29.7,1.73.78.3.25.47.39.63.52.16.13.33.26.71.59l.05.1c.19.35.44.77,1,1.24.2.16.36.29.51.39-.4.23-.82.49-1.23.84l-.29.25c-.43.35-.91.75-1.34,1.3ZM66.11,70.11c-.41-.1-.83-.25-1.25-.45-.16-.08-.38-.26-.61-.46-.15-.13-.3-.25-.46-.38-.09-.07-.23-.26-.37-.45-.16-.21-.31-.41-.49-.61l-.11-.12c-.3-.34-.56-.63-.76-.95-.31-.5-.72-.82-1.02-1.05-.06-.04-.12-.09-.17-.13-.15-.38-.27-.83-.39-1.3-.02-.09-.02-.36-.01-.53,0-.33,0-.66-.03-.98-.03-.23-.07-.46-.11-.7-.01-.07-.02-.14-.04-.21.06-.18.1-.38.1-.58,0-.4-.03-.76-.07-1.07-.02-.19-.06-.49-.07-.49.03-.06.14-.23.21-.34.21-.31.47-.7.63-1.19.06-.19.21-.42.37-.68.14-.22.27-.44.39-.67.23-.42.34-.83.43-1.16.04-.14.09-.32.08-.33.18-.23.48-.48.78-.73l.34-.29c.31-.26.7-.47,1.24-.76.33-.17.58-.38.8-.57.02,0,.04,0,.05,0,.37,0,.73-.11,1.04-.32.26.03.53.06.78.06.58,0,.9-.05,1.16-.08.16-.02.31-.04.62-.04q.12,0,.26.05c.38.14.81.27,1.53.27.83,0,1.37-.25,1.75-.45.33.2.9.52,1.82.52.62,0,.97-.07,1.23-.11.18-.03.28-.05.55-.05.51,0,.76-.02,1.02-.03.19-.01.39-.02.77-.02.7,0,1.12-.12,1.5-.25q.15-.05.29-.05c.53,0,.79-.02,1.06-.05.17-.01.35-.03.7-.03,0,0,0,0,.02.01.3.17.87.49,1.81.49.51,0,.76-.02,1.02-.03.19-.01.38-.03.77-.03.62,0,.98-.07,1.24-.11.18-.03.28-.05.56-.05.61,0,.98-.07,1.32-.15.17-.04.24-.05.47-.05.33,0,.5.02.67.04.25.03.56.07,1.12.07.25,0,.33.02.5.05.34.07.69.14,1.29.14.63,0,1-.08,1.35-.17.17-.04.22-.06.44-.06.34,0,.52.02.69.04.28.03.55.06,1.1.06.36,0,.55.02.73.03.27.02.53.05,1.07.05.62,0,.98-.07,1.33-.16.16-.04.22-.05.43-.06,0,0,0,0,.02.01.31.17.88.49,1.82.49.52,0,.78-.02,1.05-.04.19-.01.38-.03.75-.03.76,0,1.29-.22,1.67-.42.32.23.76.53,1.33.66.27.06.55.1.83.13.16.02.38.04.43.07.43.2.84.29,1.17.36.09.02.19.03.28.06.3.24.62.59.89.87.06.1.1.23.14.35.11.3.26.68.5,1.05.27.41.58.7.84.94.07.07.15.13.22.21.07.17.12.44.18.69.05.23.1.46.17.67.02.08.03.35.03.52,0,.32.01.64.05.92,0,.06-.04.24-.06.37-.06.3-.13.68-.13,1.12,0,.12.02.23.04.34-.03.13-.05.27-.05.41,0,.23.05.44.12.65,0,.01,0,.02,0,.04-.07.48-.02.9.01,1.24,0,.09.02.18.03.26-.05.07-.11.14-.17.21-.21.27-.46.6-.65,1.03-.13.3-.23.61-.32.92-.05.16-.11.38-.15.45-.25.39-.55.78-.86,1.12l-.11.12c-.26.29-.51.56-.74.76-.05,0-.11.01-.16.02-.36.04-.86.1-1.37.34-.18.08-.34.17-.51.26-.25.13-.46.25-.61.28-.45.1-.83.17-1.24.17-.36,0-.54-.01-.72-.03-.26-.02-.52-.04-1.04-.04-.59,0-.95.07-1.28.14-.17.04-.24.05-.48.05-.36,0-.55-.01-.73-.03-.26-.02-.52-.04-1.03-.04-.68,0-1.09.11-1.45.23-.15.05-.16.05-.31.05-.43,0-.64,0-.85,0-.23,0-.46,0-.91,0q-.12,0-.26-.05c-.37-.13-.8-.26-1.5-.26s-1.08.11-1.44.22c-.15.05-.17.05-.32.05q-.14,0-.29-.05c-.3-.1-.64-.2-1.14-.23-.02-.77-.22-1.25-.34-1.54-.02-.04-.04-.08-.05-.12,0,0,0-.03,0-.12,0-.63-.06-.98-.11-1.26-.03-.2-.05-.32-.07-.62l.05-.1c.22-.43.46-.96.46-1.82,0-.73-.13-1.18-.27-1.57-.04-.12-.06-.16-.06-.24.03-.06.07-.12.1-.18.95-1.67.35-2.78-.33-3.42-1.32-1.24-2.7-.69-3.23-.48-.1.04-.25.1-.29.1-.69,0-1.1.09-1.49.2-.18.05-.26.07-.46.07-.07-.03-.13-.07-.19-.11-1.29-.74-2.43-.66-3.38.24-1.31,1.22-.86,2.62-.69,3.14.04.13.08.26.08.32,0,.46,0,.69,0,.91,0,.25-.01.5-.01.99,0,.97.34,1.56.52,1.88-.21.33-.58.94-.58,1.93,0,.41-.01.61-.03.82-.02.26-.04.53-.04,1.04-.04,0-.08-.01-.13-.02-.25-.04-.57-.08-1.14-.08-.31,0-.47-.02-.62-.04-.25-.03-.56-.07-1.11-.07-.82,0-1.36.25-1.73.46-.32-.18-.87-.46-1.74-.46-.55,0-.86.04-1.1.07-.16.02-.32.04-.64.04-.55,0-.86.04-1.1.07-.16.02-.32.04-.64.04-.55,0-.86.04-1.11.07-.16.02-.32.04-.64.04-.67,0-1.08.1-1.34.17-.16.04-.21.05-.4.05-.13,0-.42-.09-.66-.16-.22-.07-.44-.13-.65-.18ZM83.74,84.42c-.06.01-.12.03-.18.04-.07-.05-.16-.11-.22-.16-.29-.22-.66-.49-1.14-.67-.8-.29-1.56-.07-2.06.08,0,0-.01,0-.02,0-.05-.04-.09-.09-.13-.12-.25-.23-.56-.53-.97-.76-.46-.26-.92-.37-1.29-.45-.13-.03-.32-.08-.32-.06-.29-.2-.61-.48-.92-.75l-.28-.24c-.05-.08-.08-.18-.12-.28-.16-.36-.37-.85-.79-1.27-.27-.28-.54-.61-.82-.96l-.21-.27c-.37-.45-.82-.72-1.16-.91-.09-.05-.18-.09-.25-.15-.06-.11-.13-.3-.18-.46-.11-.31-.24-.65-.44-1.01-.15-.27-.27-.57-.4-.87-.07-.16-.14-.32-.21-.48,0-.07.01-.14.02-.22.02-.18.03-.39.03-.61.13-.01.25-.03.35-.04.16-.02.32-.04.64-.04.55,0,.86-.04,1.1-.07.15-.02.29-.04.57-.04,0,0,0,0,0,0,.3.17.87.5,1.8.5.87,0,1.42-.28,1.8-.49.27,0,.42.02.56.04.25.03.56.07,1.12.07.3,0,.45.02.6.04.25.04.56.08,1.09.08.05.01.09.03.12.05,1.17.47,2.17.25,2.99-.65.6-.66,1.13-1.75.24-3.19,0-.01-.02-.03-.03-.04,0-.33.02-.51.03-.7.02-.26.04-.52.04-1.02v-.02c.22-.33.6-.94.6-1.96s-.34-1.57-.53-1.89l-.02-.04c0-.44,0-.66,0-.89,0-.22,0-.45.01-.86.11.01.22.02.34.02.69,0,1.1-.09,1.49-.2.2-.05.27-.07.53-.07,0,.04,0,.08,0,.12,0,.73.13,1.18.27,1.57.06.17.06.18.08.32l-.05.1c-.22.43-.46.96-.46,1.82,0,.63.06.98.11,1.26.03.2.05.32.05.64,0,.85.21,1.36.34,1.67.02.04.04.08.05.12,0,0,0,.01,0,.04-.01.03-.03.05-.04.08-.63,1.17-.52,2.22.34,3.15.6.65,1.63,1.26,3.13.49.02-.01.04-.02.07-.03.06,0,.09.01.2.05.37.12.79.25,1.48.25s1.08-.11,1.44-.22c.15-.05.17-.05.32-.05q.12,0,.26.05c.38.13.8.26,1.5.26.43,0,.64,0,.85,0,.23,0,.46,0,.91,0,.68,0,1.09-.11,1.45-.23.15-.05.16-.05.31-.05.36,0,.55.01.73.03.26.02.52.04,1.03.04.59,0,.95-.07,1.28-.14.17-.04.24-.05.48-.05.36,0,.54.01.72.03.26.02.52.04,1.04.04.17,0,.32-.03.49-.04.2.38.45.65.62.81,0,.26,0,.43-.02.59,0,.2-.02.4-.02.75-.28.29-.85.89-.85,1.93s.55,1.63.85,1.93c0,.03-.02.07-.05.12-.1.24-.19.52-.24.87-.13.07-.25.14-.38.23-.52.37-.81.85-1.02,1.21-.04.07-.08.15-.13.21-.25.15-.52.27-.78.4-.13.06-.25.12-.38.19-.06,0-.12-.02-.18-.02-.44-.05-1.12-.13-1.8.16-.43.19-.77.44-1.03.64-.12.09-.28.21-.34.24-.67.24-1.09.71-1.39,1.07-.44-.13-1.02-.29-1.7-.15-.49.1-.89.31-1.21.47-.12.06-.3.15-.3.16-.07,0-.26-.04-.39-.07-.36-.07-.8-.16-1.3-.13-.32.02-.63.01-.95,0-.22,0-.44-.01-.67-.01-.7,0-1.26.31-1.66.55-.38-.32-.92-.73-1.66-.81-.53-.05-.99.04-1.35.11-.08.01-.17.03-.24.05-.04-.03-.08-.07-.12-.1-.34-.28-.81-.66-1.47-.8-.63-.14-1.18-.03-1.58.05ZM96.33,95.34c-.84-.05-1.45.37-1.87.63-.05.03-.1.07-.15.1-.1-.02-.23-.05-.34-.07-.37-.08-.83-.19-1.34-.17-.46.02-.87.1-1.22.17-.2.04-.4.08-.61.1-.64.05-1.14.3-1.51.48-.08.04-.16.09-.22.12-.07-.02-.15-.05-.22-.08-.11-.04-.23-.08-.37-.12-.02-.18-.04-.32-.06-.45-.02-.1-.03-.19-.04-.3.36-.34.97-1.01.97-2.14,0-.78-.19-1.26-.37-1.65l-.04-.15c0-.29.02-.4.05-.59.04-.26.1-.6.1-1.21,0-.26.02-.34.06-.52.01-.06.02-.12.04-.18.24.09.49.17.78.18.04,0,.07,0,.11,0,.76,0,1.36-.37,1.75-.61.06-.04.12-.08.18-.11.13,0,.26,0,.39,0,.43.01.85.02,1.27,0h0c.07,0,.26.04.39.07.38.08.91.19,1.5.11.59-.08,1.08-.33,1.43-.51.04-.02.08-.04.13-.07.05.92.44,1.5.66,1.79,0,.5.06.8.1,1.04.03.19.05.3.05.6,0,.21-.01.26-.06.43-.07.27-.19.68-.19,1.38,0,.8.19,1.29.31,1.58,0,0,0,0,0,0-.05.06-.12.14-.18.22-.44-.02-.88-.04-1.33-.06h-.16Z"/></svg>