<?xml version="1.0" encoding="UTF-8"?><svg id="_レイヤー_1" xmlns="http://www.w3.org/2000/svg" viewBox="0 0 141.73 141.73"><defs><style>.cls-1{fill:#231815;}</style></defs><path class="cls-1" d="M139.78,113.15c-.09-.69-.43-1.19-.65-1.53-.06-.09-.13-.18-.18-.28-.05-.1-.08-.2-.12-.3-.14-.38-.34-.91-.82-1.47l-.03-.1c-.12-.35-.27-.77-.72-1.29-.43-.51-.81-.73-1.14-.9-.03-.02-.06-.03-.15-.11-.18-.21-.26-.33-.33-.45-.12-.2-.28-.44-.62-.84-.22-.26-.32-.39-.42-.53-.14-.19-.28-.38-.58-.73l-1.04-1.22c-.15-.17-.18-.24-.26-.38-.15-.27-.31-.55-.66-.95-.46-.53-.86-.76-1.1-.89q-.11-.06-.17-.14c-.4-.47-.72-.69-.92-.83-.09-.06-.13-.09-.19-.15-.03-.35-.11-1.02-.69-1.7-.46-.54-.88-.76-1.23-.92l-.09-.06c-.37-.43-.63-.64-.82-.79-.13-.1-.19-.15-.34-.35-.07-.3-.19-.85-.72-1.47-.29-.34-.45-.51-.61-.67-.12-.12-.24-.25-.47-.52-.47-.55-.91-.77-1.34-.97-.05-.06-.06-.08-.06-.08-.02-.04-.03-.07-.04-.1-.12-.34-.28-.74-.71-1.24-.46-.54-.86-.76-1.11-.89q-.11-.06-.17-.13c-.23-.27-.34-.41-.45-.55-.14-.18-.27-.36-.56-.7-.25-.29-.37-.43-.48-.58-.13-.17-.27-.33-.55-.66-.12-.14-.2-.22-.25-.31-.04-.07-.06-.15-.1-.26l-.12-.33c-.07-.18-.13-.32-.18-.44-.03-.07-.06-.13-.07-.17-.01-.08-.01-.17-.01-.31,0-.48-.02-.71-.05-.95-.02-.16-.03-.31-.03-.7l.04-.09c.13-.33.27-.74.27-1.4,0-.41,0-.62,0-.83,0-.19,0-.37,0-.74,0-.41,0-.62,0-.82,0-.19,0-.38,0-.75,0-.59-.09-.95-.19-1.27-.03-.11-.04-.14-.05-.24.16-.28.47-.79.47-1.64,0-.42,0-.62-.01-.83,0-.18-.01-.37-.01-.74,0-.55-.06-.87-.11-1.1-.03-.16-.05-.24-.05-.47,0-.27.02-.41.04-.55.03-.23.08-.51.08-1.03,0-.42,0-.63-.01-.84,0-.18-.01-.37-.01-.73,0-.72-.19-1.17-.39-1.58,0-.17.01-.21.05-.36.08-.31.16-.65.16-1.21,0-.15,0-.16.05-.3.1-.32.19-.68.19-1.27,0-.48-.03-.72-.05-.96-.02-.15-.03-.31-.03-.61,0-.27.02-.41.04-.54.03-.23.08-.51.08-1.03,0-.59-.09-.95-.19-1.27-.04-.14-.05-.16-.05-.3,0-.38,0-.56,0-.75,0-.21,0-.41,0-.82,0-.45-.01-.67-.03-.9-.01-.17-.02-.34-.02-.68,0-.46-.02-.68-.03-.91-.01-.17-.03-.33-.03-.67,0-.3.02-.46.03-.61.03-.24.05-.49.05-.97,0-.18.01-.3.03-.4.05-.48.07-.92-.22-1.71-.24-.65-.64-1.09-1.2-1.29-.82-.3-1.49.09-1.74.24-.03.02-.06.04-.04.05-.13,0-.27-.03-.42-.06-.31-.05-.7-.11-1.14-.12-.42-.02-.81.08-1.11.15-.17.04-.35.08-.45.08h0c-.17,0-.34-.03-.51-.06-.31-.04-.65-.09-1.04-.09h0c-.41,0-.77.07-1.07.12-.12.02-.24.05-.34.06-.04-.02-.08-.04-.12-.07-.36-.19-.92-.47-1.59-.47-.34,0-.67.05-1.01.09-.19.03-.38.06-.56.06-.32,0-.74.02-1.14.04l-.73.03c-.71.02-1.33.49-1.54,1.17-.25.81-.18,1.34-.09,1.81.03.15.05.23.05.38,0,.6.1.97.2,1.3.04.14.05.16.05.3,0,.54.06.86.13,1.16.04.16.05.22.05.44q0,.1-.04.22c-.1.26-.25.68-.25,1.39,0,.31-.02.46-.04.61-.03.25-.06.5-.06.99,0,.37,0,.55-.02.73,0,.22-.02.44-.02.87,0,.83.3,1.35.53,1.7,0,.23-.02.36-.04.49-.03.25-.07.51-.07,1.02,0,.37,0,.55-.02.73,0,.22-.02.44-.02.94l-.04.09c-.14.34-.3.77-.3,1.45,0,.3-.02.45-.04.6-.03.25-.06.5-.06,1,0,.61.09.98.16,1.22.04.15.05.2.05.39,0,.43,0,.64.01.86,0,.15.01.31.01.57-.2-.13-.4-.25-.59-.36-.14-.08-.27-.16-.41-.25-.43-.27-.87-.47-1.25-.64-.14-.07-.29-.13-.43-.2-.06-.03-.22-.16-.32-.24-.31-.25-.73-.59-1.3-.79-.15-.05-.3-.11-.45-.17-.41-.16-.87-.33-1.37-.45-.56-.13-1.06-.08-1.47-.05-.17.01-.37.03-.46.02l-.18-.02c-.54-.06-1.1-.12-1.7-.12-.56,0-.87.06-1.11.11-.16.03-.24.05-.48.05-.17,0-.2,0-.35-.05-.31-.09-.66-.17-1.24-.17-.27,0-.41-.02-.54-.04-.23-.04-.52-.08-1.04-.08-.34,0-.51-.01-.68-.02-.22-.01-.43-.03-.85-.03.17-.32.34-.77.34-1.38,0-.57-.07-.9-.15-1.22-.04-.16-.05-.22-.05-.43,0-.51-.03-.76-.06-1.01-.02-.16-.04-.31-.04-.63,0-.11-.01-.22-.03-.33.26-.14.49-.28.68-.41.1-.07.19-.13.29-.19.06,0,.12,0,.18,0,.44,0,1.09.02,1.73-.35.5-.29,1.01-.61,1.49-.93.58-.4.87-.97,1.06-1.34.03-.06.06-.13.1-.19l.29-.22c.33-.25.66-.51.97-.8.13-.12.27-.23.42-.35.27-.22.59-.47.88-.79.1-.11.23-.2.36-.3.28-.22.63-.49.94-.87.28-.35.48-.71.65-1.03.08-.16.17-.31.26-.46l.22-.32c.26-.37.51-.74.74-1.12.27-.47.38-.95.45-1.3.03-.13.07-.31.09-.36.08-.16.16-.32.25-.47.17-.31.36-.66.51-1.05.05-.1.13-.19.2-.28.22-.3.53-.71.7-1.26.13-.41.2-.82.27-1.18.03-.18.06-.35.1-.53.1-.42.14-.83.18-1.19.02-.18.04-.35.06-.53.07-.47.04-.91.01-1.25-.01-.16-.03-.32-.03-.41.03-.09.07-.18.11-.27.17-.37.39-.88.39-1.52,0-.57-.17-1.05-.29-1.4-.04-.11-.09-.22-.1-.33-.01-.18-.01-.37-.01-.55,0-.35,0-.75-.06-1.19-.01-.07-.03-.14-.04-.21.06.05.12.11.18.16.13.11.25.21.36.32l.19.18c.38.36.78.73,1.21,1.05.57.42,1.14.75,1.62,1.02.54.3,1.15.57,1.81.8.74.26,1.41.13,1.86.04.09-.02.18-.04.18-.05.55.07,1.21.14,1.87.08.1.01.2.05.29.08.3.08.69.2,1.15.2.23,0,.47-.03.72-.1.77-.23,1.23-.77,1.54-1.12.05-.05.09-.11.14-.16.09-.03.22-.06.32-.09.39-.1.92-.23,1.42-.59.16-.12.33-.23.5-.33.36-.23.72-.46,1.06-.78l.25-.24c.75-.7.95-1.08,1.1-2.14.05-.34,0-.68-.16-.99-.2-.4-.41-.71-.6-.98-.09-.13-.18-.26-.26-.39-.03-.05-.09-.24-.12-.36-.11-.34-.25-.8-.56-1.23-.3-.41-.64-.72-.91-.96-.11-.1-.22-.19-.31-.3-.11-.12-.21-.25-.31-.37-.25-.3-.53-.65-.91-.95-.44-.36-.91-.61-1.28-.81l-.3-.16c-.52-.29-1.01-.4-1.4-.49-.12-.03-.25-.05-.37-.09-.13-.04-.25-.11-.37-.16-.08-.04-.17-.08-.27-.13.27-.19.56-.42.8-.74.38-.5.58-1.01.75-1.43.05-.13.1-.26.16-.38.06-.13.12-.25.18-.38.21-.42.45-.89.59-1.44.15-.56.18-1.1.21-1.53,0-.13.02-.26.03-.39.06-.59-.02-1.11-.07-1.49-.02-.14-.04-.27-.05-.39q0-.07.05-.19c.16-.38.57-1.37-.38-2.51-.22-.26-.51-.45-.84-.54-.47-.13-.94-.22-1.39-.31l-.28-.05c-.18-.04-.35-.09-.52-.13-.34-.1-.72-.21-1.15-.25-.5-.05-.95-.01-1.31.02-.15.01-.3.03-.44.03-.15,0-.32-.02-.47-.04-.37-.05-.83-.1-1.34-.02-.56.09-1.06.27-1.46.42-.11.04-.22.08-.33.12-.56.19-.98.48-1.32.72-.11.08-.21.15-.33.22-.51.29-1.04.63-1.54,1.07-.1.09-.21.15-.33.22-.33.21-.79.5-1.15.98-.36.47-.52.98-.64,1.35-.04.12-.07.24-.12.34-.32.6-.56,1.11-.74,1.61-.06.16-.13.31-.2.46-.15.34-.32.72-.43,1.16-.15.58-.09,1.1-.05,1.48.01.1.03.19.04.21-.03.1-.1.2-.15.29-.1.18-.21.39-.31.64-.24-.27-.49-.51-.71-.71-.13-.12-.27-.24-.39-.36-.12-.13-.23-.27-.34-.42-.22-.28-.47-.59-.79-.9-.32-.3-.66-.57-1.01-.84l-.33-.26c-.07-.06-.19-.19-.31-.33-.24-.27-.53-.61-.95-.9-.39-.26-.78-.43-1.1-.56-.16-.07-.32-.13-.46-.21-.37-.22-.75-.37-1.07-.51-.17-.07-.34-.14-.5-.22-.16-.08-.32-.17-.47-.26-.31-.18-.66-.38-1.07-.54-.43-.17-.82-.24-1.18-.31-.17-.03-.34-.06-.51-.11-.06-.02-.22-.11-.33-.18-.31-.18-.74-.43-1.27-.56-.42-.1-.83-.14-1.2-.18-.18-.02-.36-.04-.53-.06-.56-.09-1.05,0-1.41.08-.12.02-.23.05-.34.05h0c-.17-.01-.34-.05-.51-.08-.35-.06-.76-.16-1.18-.13-.11-.01-.22-.05-.33-.08-.36-.11-.87-.25-1.44-.21-.72.05-1.25.41-1.61.65-.02.01-.04.03-.06.04-.02,0-.05-.02-.07-.02-.41-.13-1.03-.32-1.73-.16l-.24.05c-.49.11-.99.23-1.47.37-.64.2-1.08.62-1.38.9-.06.06-.12.12-.18.17-.51.21-1,.43-1.49.67-.46.22-.89.47-1.32.72l-.55.32c-.38.21-.75.42-1.11.67-.36.25-.66.51-.93.75-.13.12-.26.23-.4.34-.05.04-.21.11-.33.17-.33.15-.77.36-1.17.73-.12.11-.26.2-.4.3-.29.2-.64.45-.97.8-.36.38-.56.8-.73,1.13-.07.14-.15.31-.2.36-.33.41-.62.84-.92,1.28l-.09.13c-.06.08-.09.16-.14.25-.09.12-.16.25-.21.39-.08.18-.15.35-.21.51-.05.14-.1.29-.18.42-.09.16-.19.3-.28.45-.19.3-.41.63-.57.98-.06.08-.13.15-.21.23-.27.28-.65.67-.87,1.24-.16.41-.25.8-.33,1.15-.04.18-.08.36-.13.53-.16.53-.15,1.02-.15,1.39,0,.13,0,.3,0,.36-.03.15-.1.29-.16.43-.13.33-.3.74-.37,1.22-.03.17-.06.35-.1.52-.07.35-.15.76-.18,1.19l-.03.4c-.04.44-.07.89-.07,1.34,0,.65.23,1.15.4,1.53.02.05.05.11.07.14-.02.05-.04.09-.05.14-.15.39-.36.98-.26,1.68.1.68.46,1.18.7,1.51.04.06.09.12.13.19.03.15.05.3.08.45.05.35.12.74.24,1.15.12.39.28.77.44,1.14.07.15.13.3.17.38.02.09.01.19.01.29,0,.41.02.97.3,1.55l.19.41c.18.39.37.79.58,1.16.22.38.47.72.69,1.02.1.14.21.28.3.42.33.48.75.78,1.06,1,.09.07.19.12.25.19.28.35.58.62.85.85.13.11.26.23.38.35.04.05.12.2.19.31.17.32.41.75.82,1.12.38.35.78.56,1.1.73.11.06.24.12.32.17.04.06.08.13.12.2.2.35.49.87,1.04,1.24.4.28.82.43,1.15.56.15.06.3.11.44.19.06.03.21.17.3.26.28.25.62.57,1.11.8.48.23.94.31,1.3.37.1.02.2.04.29.06.03.16.06.31.1.44.04.13.04.15.04.3,0,.48.03.72.06.96.02.13.04.26.04.51,0,.29-.01.44-.03.58-.02.22-.04.44-.04.89,0,.12,0,.12-.04.24-.09.28-.17.6-.19,1.1-.3,0-.48,0-.66.02-.18,0-.36.01-.72.01-.41,0-.61,0-.82,0-.19,0-.38,0-.81-.02-.36-.18-.81-.37-1.53-.37-.81,0-1.32.28-1.67.49-.44,0-.85.06-1.2.11-.15.02-.3.04-.45.06-.07,0-.25-.01-.38-.03-.36-.04-.86-.09-1.4.02-.56.12-1.12.27-1.71.46-.47.15-.85.38-1.16.56-.14.08-.28.17-.43.23l-.24.11c-.43.19-.88.39-1.34.65-.41.24-.73.51-1.02.75-.13.11-.25.21-.38.31l-.26.19c-.36.26-.74.53-1.12.87-.12.11-.25.21-.38.32-.29.24-.62.5-.89.81-.08.06-.17.11-.26.16-.36.2-.85.48-1.23,1.01-.45.62-.49,1.3-.51,1.75,0,.06,0,.12,0,.18-.06.1-.13.2-.2.29-.21.31-.44.65-.64,1.09-.07.15-.15.29-.23.43-.18.31-.4.7-.55,1.16-.1.32-.17.62-.23.92-.42-.69-.9-.98-1.25-1.18-.13-.22-.18-.35-.23-.47-.09-.22-.21-.5-.49-.96-.13-.21-.16-.3-.22-.46-.08-.23-.2-.54-.49-1.02l-.84-1.39c-.09-.16-.11-.2-.15-.35-.07-.25-.18-.62-.51-1.16-.29-.48-.52-.72-.75-.95-.11-.12-.16-.16-.27-.34-.26-.43-.41-.63-.57-.83-.1-.13-.19-.25-.36-.52-.26-.42-.41-.62-.56-.82-.1-.13-.2-.26-.36-.53-.27-.44-.43-.64-.59-.84-.05-.06-.11-.14-.17-.22-.04-.12-.09-.23-.16-.34-.01-.02-.03-.04-.05-.06-.04-.39-.12-.86-.49-1.47-.32-.52-.6-.79-.86-1.02-.12-.1-.13-.11-.21-.24-.18-.3-.26-.46-.34-.61-.11-.21-.22-.42-.46-.82-.07-.12-.08-.13-.11-.28-.08-.35-.18-.73-.51-1.27-.31-.5-.7-.86-1.01-1.15-.11-.1-.21-.19-.3-.29-.1-.1-.19-.22-.28-.33-.26-.34-.59-.75-1.07-1.09-.5-.35-1.04-.5-1.43-.61-.13-.04-.27-.07-.39-.12-.08-.03-.16-.08-.24-.12l.94-3.51c.24-.89-.29-1.81-1.18-2.05l-2.79-.75,1.66-6.16,2.79.75c.14.04.29.06.43.06.29,0,.58-.08.83-.22.38-.22.66-.59.78-1.01l1.93-7.17c.12-.43.05-.88-.17-1.27-.22-.38-.59-.66-1.01-.78l-8.81-2.37c-.43-.11-.88-.06-1.27.17s-.66.59-.78,1.01l-1.93,7.17c-.24.89.29,1.81,1.18,2.05l2.79.75-1.66,6.16-2.79-.75c-.43-.12-.88-.06-1.27.17-.38.22-.66.59-.78,1.01l-1.7,6.33c-.07,0-.09,0-.21-.05-.27-.11-.73-.29-1.49-.29-.26,0-.35-.02-.52-.06-.25-.05-.6-.12-1.2-.12-.52,0-.78.03-1.04.05-.17.02-.34.04-.69.04-.89,0-1.54.46-1.93.73-.08.06-.16.12-.22.15l-.16.07c-.52.21-1.17.48-1.75,1.06l-.17.16c-.41.4-.91.89-1.23,1.65-.21.5-.34,1.01-.41,1.54-.24.38-.27.77-.27.92,0,.67.19,1.25.35,1.71.04.13.09.26.12.39.19.71.52,1.28.81,1.78l.08.13c.37.64.83,1.1,1.24,1.5l.1.1c.49.49,1.01.78,1.46,1.04l.22.13c.09.06.17.14.25.22.33.29.82.74,1.54.93.32.08.62.11.89.11.19,0,.34-.02.51-.04l-1.17,4.37c-.12.43-.05.88.17,1.27.22.38.59.66,1.01.78l.39.11-3.3,13.25c-.05.21-.06.42-.03.63l.73,5.34c.09.65.55,1.19,1.19,1.38.16.05.31.07.47.07.48,0,.95-.21,1.27-.59l3.57-4.18c.17-.2.29-.43.35-.68l3.28-13.19.89.24c.15.04.29.06.43.06.74,0,1.41-.49,1.61-1.24l1.03-3.84c.04.17.11.35.21.51.32.5.86.77,1.41.77.26,0,.52-.08.77-.2.04.09.07.17.1.24.1.28.2.54.43.97.11.2.14.28.18.43.07.23.17.54.44,1.03l.76,1.38c.08.14.09.17.12.32.07.32.17.67.45,1.17.26.48.48.74.7.97.1.11.14.15.23.32.24.43.38.63.52.83.09.12.17.25.32.51.23.42.37.62.51.82.09.13.18.25.32.52.24.44.39.64.54.85.09.12.17.23.32.55.02.4.07.87.41,1.5.29.53.56.81.81,1.04.1.1.11.1.17.22.16.29.23.45.3.6.09.21.19.42.41.82q.06.1.08.24c.06.35.14.73.44,1.28.26.47.46.72.66.95.1.12.15.17.25.36.09.17.11.22.15.37.08.31.18.63.44,1.12.29.53.56.8.8,1.04.1.1.11.11.18.23.1.17.11.23.15.38.08.31.18.62.44,1.1.3.55.58.83.84,1.07q.1.09.16.2c.06.11.1.19.13.26-.2-.03-.45-.06-.77-.06s-.47-.02-.62-.03c-.25-.03-.49-.05-.98-.05-.37,0-.55,0-.73-.02-.22,0-.44-.02-.87-.02-.2,0-.26-.01-.41-.05-.31-.08-.64-.14-1.2-.14-.61,0-.98.1-1.3.2-.14.04-.16.05-.3.05-.42,0-.64,0-.85.01-.19,0-.38.01-.76.01-.24,0-.32-.02-.47-.05-.24-.05-.56-.11-1.13-.11-.5,0-.78.04-1.08.09-.13.02-.27.04-.53.04-.66,0-1.07.14-1.4.26-.03.01-.06.03-.1.04h0c-.29-.2-.83-.53-1.71-.53-.69,0-1.11.16-1.46.3l-.15.04c-.36,0-.53-.01-.71-.02-.22-.01-.45-.02-.9-.02s-.7.02-.93.03c-.17.01-.34.03-.68.03-.6,0-.96.09-1.29.19-.14.04-.17.05-.32.05-.31,0-.47-.02-.63-.03-.24-.03-.49-.05-.98-.05l-.14-.04c-.35-.15-.78-.31-1.47-.31-.74,0-1.19.2-1.61.41l-.14-.04c-.35-.15-.78-.31-1.47-.31-.22,0-.28-.01-.44-.05-.31-.07-.63-.13-1.17-.13-.5,0-.74.03-.99.05-.15.02-.31.04-.62.04-.8,0-1.3.26-1.65.46-.24,0-.37-.02-.5-.04-.24-.04-.54-.09-1.07-.09-.25,0-.33-.02-.49-.05-.24-.05-.56-.11-1.12-.11h-1.61c-.92,0-1.67.74-1.67,1.67s.75,1.67,1.67,1.67h1.61c.25,0,.33.02.49.05.24.05.56.11,1.12.11.27,0,.41.02.54.04.24.04.54.09,1.07.09.8,0,1.3-.26,1.65-.46.47,0,.71-.03.95-.05.15-.02.31-.04.62-.04.22,0,.28.01.44.05.31.07.63.13,1.17.13l.14.04c.35.15.78.31,1.47.31.74,0,1.19-.2,1.61-.41l.14.04c.35.15.78.31,1.47.31.31,0,.47.02.63.03.24.03.49.05.98.05.6,0,.96-.09,1.29-.19.14-.04.17-.05.32-.05.46,0,.7-.02.93-.03.17-.01.34-.03.68-.03.36,0,.53.01.71.02.22.01.45.02.9.02.69,0,1.11-.16,1.46-.3l.07-.02c.3.2.82.52,1.68.52.66,0,1.07-.14,1.4-.26.03-.01.06-.03.1-.04,0,0,.03,0,.1,0,.5,0,.78-.04,1.08-.09.13-.02.27-.04.53-.04.24,0,.32.02.47.05.24.05.56.11,1.13.11.42,0,.64,0,.85-.01.19,0,.38-.01.76-.01.61,0,.97-.1,1.3-.2.14-.04.16-.05.3-.05.2,0,.25.01.41.05.31.08.64.14,1.2.14.37,0,.55,0,.73.02.22,0,.44.02.87.02.31,0,.47.02.62.03.25.03.49.05.99.05.18,0,.23.01.38.05.24.06.61.16,1.23.16.66,0,1.07-.14,1.4-.27.03-.01.06-.03.1-.04,0,0,.03,0,.1,0,.52,0,.81-.04,1.05-.08.14-.02.27-.04.62-.02.36.18.81.37,1.54.37.31,0,.46.02.62.03.25.03.49.05.98.05.62,0,.99-.1,1.23-.16.15-.04.19-.05.37-.05.43,0,.64,0,.86-.01.19,0,.38-.01.75-.01.62,0,1-.11,1.33-.22.14-.05.14-.05.28-.05.21,0,.26.01.42.05.31.07.63.14,1.18.14q.1,0,.22.04c.25.09.68.25,1.38.25.48,0,.73-.02.97-.05.16-.02.32-.03.64-.03.36,0,.54,0,.71.02.22.01.45.02.89.02s.64,0,.86-.01c.19,0,.37-.01.75-.01.42,0,.62,0,.83,0,.19,0,.39,0,.77,0,.81,0,1.32-.28,1.67-.49.33,0,.5,0,.68.01.19,0,.38.01.73.01.28.2.84.57,1.73.57.81,0,1.33-.29,1.69-.53h.04c.35.17.78.33,1.48.33.25,0,.34.02.5.05.23.04.55.1,1.1.1.67,0,1.09-.15,1.43-.28l.18-.04c.48,0,.73-.02.97-.05.16-.02.32-.03.63-.03q.1,0,.22.04c.25.09.68.25,1.38.25.56,0,.89-.06,1.13-.11.16-.03.24-.05.48-.05.28,0,.42.02.56.04.23.03.52.08,1.04.08s.75-.03,1-.06c.15-.02.3-.04.61-.04.54,0,.86-.06,1.17-.13.16-.04.22-.05.44-.05.16,0,.18,0,.33.05.32.09.68.19,1.27.19.45,0,.67-.01.89-.02.18,0,.35-.02.71-.02.27,0,.41.02.54.04,0,0,0,0,0,0-.16.21-.26.35-.36.49-.1.14-.19.28-.41.54-.34.42-.5.71-.64.99-.07.14-.11.21-.25.38-.05.06-.07.08-.07.08-.03.03-.07.04-.1.06-.24.14-.65.37-1.1.93-.08.1-.18.19-.28.29-.32.32-.72.72-.97,1.3-.24.56-.41,1.24-.5,2-.09.79.22,1.41.42,1.82.02.05.05.1.07.12,0,.05-.02.1-.03.15-.08.44-.22,1.18.14,1.93.32.67.87,1.05,1.23,1.3.08.05.16.11.21.15.07.08.13.18.19.27.24.36.57.86,1.14,1.22.55.35,1.14.46,1.56.53.12.02.25.04.37.07.11.03.21.07.32.11.4.15.95.36,1.61.36.83,0,1.34-.27,1.62-.44h1.63c.25,0,.34,0,.5.04.24.04.56.11,1.13.11.07,0,.1,0,.1,0,.04.01.07.03.1.04.34.13.76.28,1.43.28h1.63c.81,0,1.31-.26,1.63-.42.33,0,.5.02.67.03.24.02.48.04.96.04.17,0,.2,0,.35.05.32.09.69.18,1.28.18.69,0,1.12-.16,1.47-.3l.1-.02c.29.19.82.51,1.69.51.7,0,1.14-.17,1.49-.32l.14-.04c.22,0,.29.02.45.05.31.07.63.13,1.18.13.18,0,.22.01.37.05.25.07.63.17,1.26.17s1.02-.11,1.36-.23c.14-.05.14-.05.27-.05.18,0,.21.01.36.05.32.09.68.18,1.27.18h1.63c.5,0,.75-.03,1-.05.16-.02.32-.04.63-.04.72,0,1.16-.18,1.52-.35,0,0,.04-.01.07-.02.29.18.81.49,1.67.49s1.33-.27,1.6-.43l.12.03c.36.18.81.36,1.54.36.42,0,.63,0,.84,0,.2,0,.4,0,.79,0,.83,0,1.34-.27,1.63-.44.34,0,.51.01.68.03.24.02.48.04.95.04q.12,0,.25.05c.35.12.74.25,1.38.25.5,0,.75-.03,1-.05.16-.02.32-.03.64-.03.75,0,1.31-.31,1.69-.51.08-.04.15-.09.2-.11l.18-.05c.49-.14,1.05-.29,1.62-.66.08-.05.18-.08.27-.11.4-.15,1-.38,1.48-.93.42-.49.64-1.03.82-1.46.04-.11.09-.22.13-.32.05-.11.12-.21.18-.32.23-.38.55-.89.65-1.55.1-.66-.05-1.25-.16-1.68-.03-.12-.07-.25-.08-.37ZM27.17,40.12l5.58,1.5-1.06,3.95-5.58-1.5,1.06-3.95ZM115.38,53.52h0s0,0,0,0c0,0,0,0,0,0ZM98.73,75.04c.17.08.34.16.51.24.31.14.61.27.85.42.16.1.32.19.47.29.3.18.59.35.81.53.24.19.5.36.77.52.2.12.41.25.51.35.1.1.2.17.31.24,0,.21-.01.42-.01.84q0,.1-.04.22c-.09.25-.25.68-.25,1.38,0,.51.03.76.07,1.02.02.15.04.3.04.59,0,.5.04.78.09,1.08.03.17.04.26.04.53,0,.63.12,1.02.24,1.36q.05.13.05.25c0,.21-.01.28-.05.43-.07.31-.13.63-.13,1.18v.19c0,.16,0,.26,0,.35-.02.11-.07.22-.15.44-.03.08-.05.14-.02.11l-.07.07c-.14.14-.31.3-.54.58-.12.15-.22.3-.3.44-.23-.56-.59-.89-1.05-1.17-.06-.04-.13-.08-.22-.15-.32-.28-.49-.41-.66-.54-.13-.1-.26-.2-.51-.42-.18-.16-.26-.25-.33-.34-.14-.17-.33-.4-.72-.74-.4-.35-.66-.5-.85-.62-.13-.08-.2-.12-.37-.27-.11-.1-.13-.12-.2-.23-.17-.26-.38-.55-.8-.91-.2-.17-.39-.3-.57-.4.04-.12.07-.25.11-.41.08-.36.12-.53.17-.71.06-.21.11-.43.21-.86.03-.12.03-.13.1-.25.18-.3.37-.65.5-1.26.13-.61.1-1.01.06-1.36q-.02-.14,0-.26c.08-.37.12-.56.17-.74.05-.21.1-.41.19-.82.06-.27.11-.4.16-.54.08-.22.19-.49.3-1.01.03-.14.05-.27.06-.4.04.03.08.07.12.09.25.21.57.46.97.65ZM72.82,70.94c-.07-.17-.15-.36-.26-.55-.02-.03-.04-.06-.06-.1,0-.03.01-.06.03-.12.1-.31.19-.66.19-1.23,0-.29.01-.44.03-.58.02-.22.04-.44.04-.89,0-.48-.03-.72-.06-.96-.01-.09-.02-.2-.03-.34.41.09.8.12,1.14.15.18.01.36.03.47.04.09.03.18.08.27.13.35.19.84.44,1.47.49.07,0,.13,0,.19,0,.56,0,1.02-.18,1.37-.31.06-.02.13-.05.19-.07.07.02.14.05.2.07.38.13.9.32,1.53.27.18-.01.37-.01.55-.01.36,0,.76,0,1.2-.06.59-.09,1.05-.35,1.38-.54.1-.05.19-.12.26-.14.15-.03.3-.06.45-.08,0,.07.02.14.02.21.02.16.04.31.04.63,0,.57.07.9.15,1.22.03.12.05.19.05.31-.21.3-.58.85-.58,1.77,0,.08-.03.2-.06.34-.04.16-.09.4-.12.68-.23.01-.4.03-.57.05-.15.02-.3.04-.69,0-.36-.17-.8-.35-1.52-.35-.61,0-.98.1-1.31.21-.14.04-.16.05-.3.05-.34,0-.51-.01-.69-.03-.23-.02-.46-.03-.93-.03-.13,0-.13,0-.27-.05-.34-.11-.72-.22-1.34-.22-.54,0-.86.06-1.16.13-.16.03-.23.05-.45.05-.21,0-.26-.01-.42-.05-.13-.03-.26-.06-.41-.08ZM74.46,47.01v-1.43h6.41v1.76s-.06,0-.09,0c-.33,0-.5-.01-.66-.03-.23-.02-.46-.04-.93-.04-.42,0-.63,0-.84.01-.19,0-.37.01-.75.01-.21,0-.26-.01-.42-.05-.31-.07-.63-.14-1.18-.14-.67,0-1.09.15-1.42.28l-.17.04h0c.03-.13.06-.27.06-.41ZM95.75,51.57c-.11.2-.22.41-.32.62-.19.4-.28.79-.35,1.1-.03.13-.07.3-.08.34-.18.31-.38.59-.58.88l-.24.35c-.16.24-.31.5-.45.76-.11.21-.22.41-.32.53-.06.07-.23.21-.37.31-.22.17-.5.39-.76.67-.03.03-.07.07-.11.1,0-.03,0-.05,0-.07,0-.33.02-.5.03-.67.02-.24.04-.49.04-.98s-.04-.8-.09-1.1c-.03-.17-.05-.27-.05-.54,0-.21.01-.27.05-.43.08-.32.15-.65.15-1.22,0-.68-.15-1.11-.3-1.46.14-.02.27-.04.37-.06.17-.03.25-.05.5-.05.6,0,.96-.09,1.28-.18.15-.04.18-.05.4-.03.27.14.76.4,1.56.41,0,.01-.01.02-.02.03-.09.24-.22.46-.34.69ZM111.11,33.76c.12.07.25.13.37.2.28.15.54.29.73.44.12.1.28.29.44.49.14.17.28.34.43.5.17.18.36.36.55.53.18.16.35.31.41.39.05.09.07.2.1.3.09.3.21.68.44,1.07.11.18.22.35.33.51l-.11.11c-.1.09-.33.25-.54.38-.22.14-.45.29-.59.4-.1.04-.21.06-.33.09-.31.08-.71.18-1.11.39-.49.25-.82.63-1.06.91-.3-.09-.69-.19-1.14-.19-.08,0-.15,0-.23,0-.35.03-.7.01-1.24-.06-.49-.07-.93.02-1.26.08-.08.02-.16.04-.24.04-.44-.16-.83-.33-1.18-.53-.39-.21-.84-.47-1.24-.77-.28-.21-.6-.5-.93-.81l-.2-.19c-.14-.13-.29-.26-.45-.39-.26-.22-.5-.43-.68-.63-.04-.05-.12-.22-.18-.35-.14-.3-.32-.67-.6-1.03.16-.14.33-.3.49-.47.16-.17.32-.32.45-.41.18-.12.36-.25.54-.38.22-.17.44-.32.63-.42.07-.04.29-.09.44-.12.3-.07.61-.15.9-.26.22-.08.43-.19.64-.29.23-.11.44-.21.59-.25.16-.04.42-.05.7-.06.2,0,.4-.01.6-.03.42-.03.86-.07,1.22-.03.06.01.23.1.36.16.25.12.51.24.78.33.21.07.43.12.66.17.21.05.42.1.51.15ZM99.52,27.6c-.01-.11-.04-.22-.03-.3.04-.16.14-.38.25-.62.1-.21.19-.43.28-.66.13-.36.31-.74.56-1.2.18-.33.28-.65.36-.91.04-.12.1-.3.08-.3.05-.05.21-.15.32-.22.22-.14.49-.31.75-.55.28-.25.64-.47.99-.67.19-.11.38-.24.57-.37.18-.13.37-.26.48-.29.14-.05.28-.1.42-.15.3-.11.58-.21.8-.25.07,0,.28.02.44.04.3.04.61.07.91.06.23,0,.46-.02.71-.04.25-.02.49-.04.67-.03.14.02.36.08.59.14.25.07.51.14.78.2l.16.03c0,.13-.01.26,0,.41,0,.24.04.49.08.75.04.25.07.5.05.68-.02.16-.03.32-.04.49-.02.34-.05.65-.11.91-.05.21-.19.49-.34.78-.08.15-.15.3-.22.46-.09.18-.16.38-.24.57-.1.26-.2.51-.27.61-.05.04-.21.15-.33.22-.23.14-.52.31-.8.55l-.2.17c-.29.26-.55.48-.83.63-.34.19-.61.42-.82.6-.11.09-.27.23-.32.25-.14.05-.41.08-.67.12-.26.03-.52.07-.7.11-.11,0-.21-.03-.32-.05-.32-.06-.76-.13-1.26-.08-.6.06-1.07.32-1.41.51-.02.01-.04.02-.07.04,0,0-.02,0-.02-.01-.37-.2-.88-.48-1.53-.51,0,0,0,0-.01,0,.13-.27.27-.6.33-.99.07-.43.03-.82,0-1.13ZM98.95,33.06c.07.03.14.07.21.11.02.01.04.02.06.03-.13.04-.34.11-.56.24-.06-.11-.12-.22-.19-.32.05,0,.11-.01.16-.02.1-.02.23-.04.32-.05ZM63.53,29.72c.26-.18.52-.37.74-.58.05-.04.21-.11.33-.17.29-.13.65-.3,1-.58.17-.14.34-.28.51-.43.2-.18.4-.35.62-.51.28-.19.57-.35.86-.52l.59-.34c.36-.21.72-.42,1.1-.6.44-.21.88-.42,1.34-.6.54-.21.91-.57,1.19-.83.05-.05.11-.11.16-.16.36-.11.74-.19,1.11-.27l.07-.02c.06.02.11.04.17.05.39.12.92.29,1.56.19.62-.09,1.08-.4,1.42-.62.03-.02.06-.04.09-.06.06.02.11.04.17.05.33.1.75.22,1.24.22.16,0,.38.04.61.08.28.05.57.1.85.12.47.04.87-.04,1.2-.1.12-.02.23-.05.31-.06.22.03.44.06.66.08.28.03.55.06.8.11.06.02.23.12.33.18.27.16.61.36,1.03.49.29.09.58.15.88.2.23.04.44.08.57.13.18.07.39.19.62.32.23.13.46.26.69.38.22.1.44.2.66.29.23.1.47.19.69.32.27.15.55.28.84.4.2.08.41.17.51.24.06.04.21.21.32.33.19.22.43.49.74.74l.36.28c.27.21.54.42.79.65.13.12.28.31.43.51.17.21.34.43.52.62.08.08.16.16.24.23-.14.01-.3.03-.58.03-.49,0-.73.02-.97.05-.16.02-.33.03-.7.03l-.09-.04c-.34-.14-.77-.3-1.45-.3-.31,0-.47-.02-.62-.03-.25-.03-.49-.05-.98-.05-.64,0-1.03.12-1.37.25q-.12.04-.23.04c-.36,0-.54,0-.71-.02-.22-.01-.44-.02-.89-.02-.56,0-.88.06-1.11.11-.16.03-.25.05-.49.05-.17,0-.21,0-.36-.05-.31-.08-.66-.17-1.24-.17-.28,0-.42-.02-.55-.04-.23-.03-.52-.08-1.04-.08-.35,0-.52-.01-.69-.02-.23-.01-.45-.03-.91-.03-.83,0-1.35.3-1.71.54h-1.34c-.29-.21-.85-.59-1.75-.59-.56,0-.89.07-1.21.15-.15.04-.2.05-.39.05-.5,0-.75.03-1,.06-.15.02-.3.04-.6.04s-.43-.02-.58-.04c-.23-.03-.51-.07-1.02-.07-.71,0-1.14.17-1.5.34l-.1.03c-.28,0-.42-.02-.55-.04-.23-.03-.52-.08-1.06-.09-.27-.14-.77-.41-1.58-.41-.03,0-.05,0-.08,0,.03-.06.07-.12.09-.15.08-.09.26-.21.43-.33ZM57.91,42.65l.04-.44c.02-.26.08-.52.13-.78.05-.23.09-.46.13-.69.01-.1.09-.29.16-.46.1-.26.23-.58.32-.94.1-.45.09-.85.09-1.18,0-.12-.02-.24,0-.33.08-.25.14-.51.2-.77.06-.26.11-.5.14-.59.06-.08.14-.15.21-.23.24-.25.56-.58.78-1.05.11-.23.25-.45.39-.66.12-.19.25-.39.36-.59.19.04.39.06.64.06.77,0,1.27-.25,1.61-.44.27.14.77.41,1.58.41.28,0,.42.02.55.04.23.03.52.08,1.05.08.71,0,1.14-.17,1.5-.34l.1-.03c.29,0,.43.02.58.04.23.03.51.07,1.02.07s.75-.03,1-.06c.15-.02.3-.04.6-.04.56,0,.89-.07,1.21-.15.1-.03.16-.04.25-.05.29.21.85.58,1.74.58h1.6c.83,0,1.35-.3,1.71-.54.27,0,.43.01.58.02.23.01.45.03.91.03.28,0,.42.02.55.04.23.03.52.08,1.04.08.17,0,.21,0,.36.05.31.08.66.17,1.24.17s.88-.06,1.11-.11c.16-.03.25-.05.49-.05.36,0,.54,0,.71.02.22.01.44.02.89.02.64,0,1.03-.12,1.38-.25q.12-.04.23-.04c.31,0,.47.02.62.03.25.03.49.05,1.04.05l.09.04c.34.14.77.3,1.45.3.49,0,.73-.02.97-.05.16-.02.32-.03.63-.03.48,0,.72-.02.97-.05.16-.02.32-.03.64-.03.56,0,.89-.07,1.2-.15.02,0,.03,0,.05-.01.04.06.09.11.12.17.15.27.34.52.53.77.14.18.26.35.32.46.16.33.29.68.43,1.03l.13.34c.02.06.04.25.05.39.03.3.06.68.19,1.09.13.41.31.74.47,1.01.07.12.16.29.18.34.11.48.18.97.26,1.46.03.18.03.42.03.68,0,.27,0,.54.02.8.03.46.17.85.27,1.16.03.09.07.19.09.27-.03.07-.06.14-.09.21-.15.33-.34.77-.38,1.31-.03.37,0,.69.02.98.02.2.03.4.01.51-.03.17-.04.35-.06.52-.44.05-.75.17-1.02.29l-.08.04-.11-.02c-.27-.14-.78-.41-1.61-.41-.6,0-.96.09-1.28.18-.15.04-.19.05-.36.05-.57,0-.9.06-1.14.11.04-.14.06-.28.06-.43v-7.03c0-.92-.74-1.66-1.66-1.66h-7.61c-.92,0-1.66.74-1.66,1.66v1.6h-6.41v-1.6c0-.92-.74-1.66-1.66-1.66h-7.61c-.92,0-1.66.74-1.66,1.66v7.14c-.32.02-.55.06-.78.11-.16.04-.23.05-.47.05-.54,0-.84.05-1.08.08-.14.02-.28.04-.58.03-.28-.15-.79-.44-1.64-.44-.31,0-.56.02-.76.06-.06-.09-.12-.17-.17-.24l-.03-.04s0-.02.01-.03c.14-.37.33-.88.28-1.51-.04-.55-.24-1-.39-1.32-.03-.08-.07-.15-.1-.23,0-.32.03-.65.06-.97ZM62.42,55.96c-.3-.38-.65-.62-.92-.82-.09-.07-.19-.13-.24-.17-.12-.17-.24-.34-.37-.51-.17-.23-.35-.47-.49-.72-.16-.28-.3-.59-.44-.89l-.18-.37c0-.08,0-.16,0-.25,0-.36-.02-.85-.22-1.37-.05-.13-.11-.26-.16-.39.3.13.7.26,1.26.26s.84-.05,1.08-.08c.14-.02.28-.04.57-.04.45,0,.75-.04,1.01-.09.01.02.02.04.03.05-.17.35-.34.79-.34,1.49,0,.3-.02.45-.03.6-.03.24-.05.49-.05.97,0,.59.09.95.19,1.27.04.14.05.16.05.3,0,.16,0,.19-.05.33-.07.25-.14.53-.16.92-.03-.02-.05-.05-.08-.07-.18-.15-.34-.3-.44-.42ZM68.77,61.57c-.23-.21-.52-.47-.89-.69-.33-.19-.64-.31-.92-.41-.13-.05-.28-.11-.38-.16-.04-.06-.07-.12-.1-.18-.01-.02-.03-.05-.05-.08,0-.04.01-.08.01-.12,0-.38,0-.56,0-.75,0-.21,0-.41,0-.83,0-.61-.09-.97-.16-1.21-.04-.15-.05-.19-.05-.37,0-.16,0-.19.05-.33.09-.31.17-.67.17-1.24s-.09-.95-.19-1.27c-.04-.14-.05-.16-.05-.3,0-.3.02-.45.03-.6.03-.24.05-.49.08-1.04.17-.35.35-.79.35-1.5v-.05c.32.12.71.23,1.31.23.35,0,.53.01.71.02.22.01.45.02.89.02s.67-.01.9-.03c.17-.01.35-.02.7-.02.62,0,1-.11,1.33-.22.14-.05.14-.05.27-.05l.11.03c.35.16.79.33,1.49.33s1.09-.15,1.42-.28l.17-.04c.21,0,.26.01.42.05.31.07.63.14,1.18.14.42,0,.63,0,.84-.01.19,0,.38-.01.75-.01.33,0,.5.01.66.03.23.02.46.04.93.04.16,0,.19,0,.33.05.32.09.68.18,1.27.18s.89-.06,1.13-.11c.16-.03.24-.05.47-.05.71,0,1.14-.17,1.5-.34l.1-.03c.19,0,.25.01.4.05.31.08.64.15,1.2.15.29,0,.43.02.57.04.21.03.46.06.88.07.02.64.17,1.05.31,1.38l.04.16c0,.21-.01.27-.05.43-.08.32-.15.65-.15,1.22,0,.51.04.8.09,1.1.03.17.05.27.05.54,0,.33-.02.5-.03.67-.02.25-.04.49-.04.98l-.03.1c-.17.36-.36.81-.36,1.54s.19,1.19.4,1.6v.04s0,.04,0,.06c-.27.18-.55.36-.83.52-.06,0-.11,0-.17,0-.39,0-.99-.01-1.57.27-.33.16-.61.35-.84.51-.16.11-.33.23-.43.26-.22.09-.44.19-.67.29-.23.11-.46.21-.7.29-.19.06-.44.1-.7.14-.25.04-.5.08-.76.14-.49.11-.88.33-1.17.5-.1.06-.19.12-.23.14-.18.03-.43.03-.7.03-.24,0-.48,0-.72.02-.08-.02-.16-.05-.24-.08-.33-.12-.79-.28-1.34-.28s-1.04.18-1.39.32c-.04.02-.09.04-.13.05-.05-.02-.1-.05-.15-.08-.31-.16-.73-.38-1.26-.46-.25-.04-.51-.06-.76-.08-.27-.02-.51-.04-.7-.08-.38-.09-.74-.1-1.04-.1h-.11c-.14,0-.32,0-.37,0-.15-.05-.36-.15-.57-.26-.26-.13-.52-.26-.78-.37-.4-.16-.78-.22-1.08-.27-.13-.02-.34-.06-.39-.07-.06-.03-.21-.17-.31-.26ZM30.75,64.4c.14.04.35.1.4.12.08.05.25.27.36.42.15.19.3.39.47.56.15.16.31.31.48.47.17.16.36.33.42.43.07.12.07.13.11.28.08.35.18.73.51,1.27.18.3.26.46.34.61.11.21.21.42.46.82.32.52.6.79.86,1.02.12.1.13.11.21.25l.03.11s.01.09.02.13c-.06.07-.08.09-.17.15-.23.15-.35.2-.48.25-.27.12-.53.24-.95.51-.47.3-.71.53-.89.7-.12.12-.18.17-.39.3-.4.26-.59.41-.79.55-.13.1-.26.2-.54.38l-1.42.89c-.1,0-.2.02-.3.04-.02-.05-.03-.1-.05-.17-.09-.3-.18-.61-.44-1.08l-1.46.8,1.44-.92c-.03-.38-.09-.83-.43-1.44-.09-.17-.21-.31-.35-.43l1.94-7.22c.2.07.4.14.61.2ZM15.22,70.97c-.27,0-.54.03-.81.06-.13.01-.31.03-.4.04-.07-.05-.13-.12-.2-.18-.21-.19-.48-.43-.82-.63l-.25-.14c-.32-.18-.58-.33-.75-.5l-.1-.1c-.3-.3-.55-.55-.7-.81l-.08-.14c-.21-.36-.4-.68-.47-.96-.05-.19-.12-.39-.18-.58-.02-.07-.05-.14-.07-.21.1-.27.12-.51.12-.63,0-.34.07-.67.2-.98.05-.12.27-.33.47-.53l.2-.2c.11-.1.31-.19.65-.33l.18-.08c.36-.15.64-.35.87-.51.06-.04.12-.09.18-.12.41,0,.64-.03.87-.05.17-.02.34-.04.69-.04.26,0,.35.02.52.06.25.05.6.12,1.2.12q.11,0,.24.05c.14.06.33.13.58.19l-1.94,7.23c-.06,0-.13-.02-.19-.02ZM16,94.91l-.89,1.05-.18-1.33,3.2-12.88,1.07.29-3.2,12.87ZM22.57,79.49l-5.58-1.5,5.73-21.31,5.58,1.5-.58,2.17c-.07.01-.14.03-.2.03-.92,0-1.67.75-1.67,1.67,0,.69.41,1.27,1,1.53l-4.28,15.92ZM58.41,102.98c-.48,0-.72.02-.97.05-.16.02-.32.03-.64.03q-.1,0-.22-.04c-.25-.09-.68-.25-1.38-.25-.21,0-.27-.01-.42-.05-.31-.07-.63-.14-1.18-.14-.62,0-1,.11-1.33.22-.14.05-.14.05-.28.05-.43,0-.64,0-.86.01-.19,0-.38.01-.75.01-.62,0-.99.1-1.23.16-.15.04-.19.05-.37.05-.31,0-.46-.02-.62-.03-.25-.03-.49-.05-1.05-.08-.36-.18-.81-.37-1.54-.37-.21,0-.37,0-.52.02-.02-.05-.04-.1-.06-.15-.13-.23-.17-.35-.21-.48-.1-.28-.2-.54-.43-.98-.3-.55-.58-.83-.84-1.06q-.1-.09-.16-.2c-.1-.17-.11-.23-.15-.38-.08-.31-.18-.62-.44-1.1-.29-.53-.56-.8-.8-1.04-.1-.1-.11-.11-.18-.22-.09-.17-.11-.22-.14-.37-.08-.31-.18-.63-.45-1.12-.26-.47-.46-.72-.66-.95-.1-.12-.15-.17-.25-.36q-.06-.1-.08-.24c-.06-.35-.14-.73-.44-1.28-.16-.29-.23-.44-.3-.59-.1-.21-.19-.42-.41-.82-.29-.53-.56-.81-.81-1.04-.1-.1-.11-.1-.18-.28-.02-.4-.07-.87-.42-1.5-.24-.44-.39-.64-.54-.85-.09-.12-.17-.23-.31-.48-.23-.43-.37-.63-.51-.83-.09-.13-.18-.25-.32-.52-.24-.43-.38-.63-.52-.83-.09-.12-.17-.25-.32-.51-.26-.48-.48-.74-.7-.97-.1-.11-.14-.15-.23-.32-.08-.14-.09-.17-.12-.32-.07-.32-.17-.67-.45-1.17l-.76-1.38c-.11-.2-.14-.28-.18-.43-.07-.23-.17-.54-.44-1.03-.12-.23-.17-.35-.21-.47-.07-.2-.17-.48-.4-.91,0,0,.02,0,.02-.01l1.36-.88c.4-.26.59-.4.78-.55.13-.1.26-.2.54-.38.47-.3.71-.53.89-.7.12-.12.18-.17.39-.31.23-.15.35-.2.48-.25.27-.11.52-.23.92-.48.15.24.26.38.38.53.1.13.2.26.36.53.26.43.41.63.57.83.1.13.19.25.36.52.29.48.52.72.75.96.11.12.16.16.27.34.09.16.11.2.15.35.07.25.18.62.51,1.16l.84,1.39c.13.21.16.3.22.46.08.23.2.54.49,1.02.14.24.2.37.25.49.09.23.21.51.49.97.42.69.9.98,1.25,1.18.25.41.4.6.55.8.1.13.19.25.36.52.12.19.14.26.19.42.1.3.22.61.53,1.12l.02.1c.05.38.14.83.5,1.42.31.51.84.78,1.39.78.3,0,.61-.08.89-.25.45-.27.71-.73.77-1.23.28-.31.44-.73.44-1.15,0-.38-.06-.71-.1-.99-.02-.15-.06-.37-.06-.45,0-.07.09-.29.15-.43.1-.26.23-.58.31-.94l.09-.45c.07-.34.13-.66.22-.93.04-.14.16-.33.27-.54.13-.24.27-.47.38-.72.07-.16.2-.35.35-.57.14-.2.27-.4.4-.62.33-.57.36-1.16.38-1.55h0s.04-.03.06-.04c.3-.17.7-.4,1.04-.78.14-.16.34-.32.56-.5.17-.14.34-.28.5-.42.24-.22.51-.41.83-.63l.29-.21c.2-.15.39-.3.57-.46.2-.17.38-.32.53-.41.3-.17.65-.33,1.01-.49l.25-.11c.26-.12.5-.25.75-.4.02-.01.05-.03.07-.04.04.08.06.11.08.22.09.41.14.62.19.82.05.18.09.36.17.73.13.61.31.95.42,1.17.07.14.09.17.13.35.07.3.08.46.1.61.03.25.05.49.14,1.04-.1.39-.19.87-.03,1.58.11.51.21.79.3,1.01.05.13.1.26.16.54.05.25.13.46.22.65-.13.08-.26.17-.39.29-.21.18-.33.26-.44.34-.2.13-.39.27-.75.58-.26.22-.39.33-.52.43-.16.13-.32.26-.63.53-.12.11-.15.12-.28.19-.27.14-.57.3-.98.65-.45.39-.66.71-.83,1q-.07.11-.15.18s-.05.03-.17.09c-.37.17-1.24.57-1.51,1.86-.23,1.09.08,1.73.4,2.24.05.08.11.18.17.31.19.46.34.7.5.96.07.11.14.23.25.47.25.6.54.93.79,1.19.02.02.05.05.08.08,0,0,0,0,0,0-.07.35-.17.97.17,1.78.27.63.58.96.84,1.22l.09.12c.14.33.2.5.26.67.08.21.15.42.32.84.18.43.29.63.39.84.08.15.16.3.29.62.23.55.46.85.67,1.11.1.12.11.13.17.28.12.29.17.44.21.59.04.12.07.23.12.38-.01,0-.03,0-.04,0-.22-.01-.45-.02-.89-.02ZM66.43,102.52c-.37,0-.56,0-.74-.01-.21,0-.43-.01-.86-.01-.81,0-1.32.28-1.67.49-.12,0-.21,0-.3,0-.04-.22-.1-.45-.22-.73-.12-.29-.17-.44-.21-.59-.07-.24-.14-.47-.33-.92-.23-.55-.46-.85-.67-1.11-.1-.12-.11-.13-.17-.28-.18-.43-.29-.64-.39-.85-.08-.15-.15-.3-.29-.61-.14-.33-.2-.5-.26-.67-.08-.21-.15-.42-.32-.84-.26-.63-.58-.96-.84-1.23l-.04-.06c.07-.35.16-.96-.17-1.75-.25-.6-.54-.93-.79-1.19-.02-.03-.05-.05-.08-.08,0,0-.02-.02-.04-.09-.19-.46-.34-.7-.5-.96-.07-.11-.14-.23-.25-.47-.06-.14-.12-.27-.18-.38.12-.08.26-.18.4-.3.45-.39.66-.71.83-1q.07-.11.15-.18c.12-.11.15-.12.28-.19.27-.14.57-.3.98-.66.26-.22.39-.33.52-.43.16-.13.32-.26.63-.53.21-.18.33-.26.44-.34.2-.14.4-.27.69-.54.04-.02.09-.03.13-.04.38-.12,1.38-.43,1.77-1.69.41-1.31-.29-2.15-.55-2.46-.02-.02-.04-.04-.06-.07-.11-.47-.2-.73-.28-.94-.05-.13-.1-.26-.15-.61.1-.39.19-.87.04-1.58-.07-.3-.08-.46-.1-.61-.03-.25-.05-.49-.16-.97-.13-.61-.31-.95-.42-1.17-.07-.14-.09-.17-.13-.35-.09-.42-.14-.63-.19-.84-.04-.18-.09-.36-.17-.72,0-.02,0-.03-.01-.05.16-.02.31-.04.46-.06.31-.04.58-.08.83-.08.78,0,1.29-.26,1.63-.47,0,0,0,0,0,0,.36.18.81.37,1.53.37.41,0,.61,0,.82,0,.19,0,.38,0,.76,0,.43,0,.64,0,.85-.02.1,0,.21,0,.34-.01.07.12.15.24.25.34,0,.14,0,.25,0,.36,0,.19,0,.39,0,.78,0,.43,0,.65.01.86,0,.19.01.38.01.75s0,.54-.02.72c-.01.22-.02.45-.02.9,0,.49.02.73.05.97.02.16.03.32.03.65q0,.11-.05.24c-.13.34-.25.74-.25,1.38,0,.21-.02.28-.05.43-.07.31-.14.64-.14,1.19,0,.62.11,1,.22,1.33.05.14.05.15.05.29,0,.43,0,.65.01.86,0,.19.01.38.01.76,0,.62.1.99.16,1.24.04.15.05.19.05.38,0,.31-.02.47-.03.63-.03.25-.05.49-.08,1.07-.18.36-.36.81-.36,1.54,0,.53.04.82.08,1.05.02.14.04.28.04.57,0,.71.17,1.15.26,1.4q.04.12.04.22c0,.19-.01.24-.05.39-.06.24-.16.61-.16,1.23,0,.31-.02.47-.04.63-.03.25-.05.5-.05.99,0,.37,0,.56-.02.75,0,.22-.02.44-.02.88,0,.21-.01.27-.05.42-.08.32-.14.64-.14,1.2,0,.61.1.98.2,1.3.04.13.05.17.05.29-.39.09-.69.24-.93.39-.31-.2-.83-.48-1.61-.48ZM82.91,102.74c-.16.04-.22.05-.44.05-.5,0-.75.03-1,.06-.15.02-.3.04-.61.04-.28,0-.42-.02-.56-.04-.23-.03-.52-.08-1.05-.08-.57,0-.89.06-1.13.11-.16.03-.24.05-.48.05q-.1,0-.22-.04c-.25-.09-.68-.25-1.38-.25-.48,0-.72.02-.97.05-.16.02-.32.03-.64.03-.67,0-1.09.15-1.43.28l-.18.04c-.25,0-.34-.02-.5-.05-.02,0-.05,0-.07-.01.02-.11.03-.21.03-.33,0-.61-.1-.98-.2-1.3-.04-.15-.05-.17-.05-.32,0-.21.01-.27.05-.42.08-.32.14-.64.14-1.2,0-.37,0-.56.02-.75,0-.22.02-.44.02-.88,0-.31.02-.47.04-.63.03-.25.05-.5.05-.99,0-.19.01-.24.05-.39.06-.24.16-.61.16-1.23,0-.71-.17-1.15-.26-1.41q-.04-.12-.04-.21c0-.53-.04-.82-.08-1.05-.02-.14-.04-.28-.01-.65.18-.36.36-.81.36-1.54,0-.31.02-.47.03-.63.03-.25.05-.49.05-.99,0-.62-.1-.99-.16-1.24-.04-.15-.05-.19-.05-.38,0-.43,0-.65-.01-.86,0-.19-.01-.38-.01-.76,0-.62-.11-1-.22-1.33-.05-.14-.05-.15-.05-.29,0-.21.02-.28.05-.43.07-.31.14-.64.14-1.19q0-.11.05-.24c.13-.34.25-.74.25-1.38,0-.49-.02-.73-.05-.97-.02-.16-.03-.32-.03-.65,0-.36,0-.54.02-.72.01-.22.02-.45.02-.9s0-.65-.01-.86c0-.19-.01-.38-.01-.75,0-.4,0-.61,0-.81.28.06.6.12,1.09.12.54,0,.86-.06,1.16-.13.16-.03.23-.05.45-.05.13,0,.13,0,.27.05.34.11.72.22,1.34.22.34,0,.51.01.69.03.23.02.46.03.93.03.61,0,.98-.1,1.31-.21.14-.04.16-.05.39-.02.36.17.8.35,1.52.35.51,0,.76-.03,1.02-.06.15-.02.3-.04.6-.04.17,0,.31,0,.44,0,.02.07.04.13.05.19.04.14.05.17.05.33,0,.32-.02.48-.03.64-.03.25-.05.49-.05,1.04l-.04.09c-.15.35-.31.78-.31,1.47,0,.74.2,1.2.38,1.56l.03.11-.04.09c-.15.35-.31.78-.31,1.47,0,.22-.02.29-.05.45-.07.31-.13.63-.13,1.17,0,.5.03.75.05.99.02.16.04.31.04.62,0,.8.26,1.3.46,1.65,0,.25-.02.38-.04.51-.04.24-.09.54-.09,1.07,0,.25-.02.33-.05.49-.05.24-.11.56-.11,1.12v1.62c0,.18-.01.22-.05.37-.09.32-.17.67-.17,1.25s.07.89.14,1.2c.04.15.05.21.05.42,0,.5.03.75.05,1,.02.16.04.31.04.63,0,.49.03.74.05.98.02.16.03.32.03.64,0,.51.03.77.06,1.02.02.15.04.3.04.6l-.03.1c-.17.36-.35.8-.35,1.52,0,.61.1.99.21,1.32.04.13.05.17.05.28-.32.02-.56.07-.78.12ZM87.28,102.81c-.1,0-.18,0-.26,0,0-.05.02-.1.02-.16,0-.61-.1-.99-.21-1.32-.05-.14-.05-.16-.05-.31l.03-.1c.17-.36.35-.8.35-1.52,0-.51-.03-.77-.06-1.02-.02-.15-.04-.3-.04-.6,0-.49-.03-.74-.05-.98-.02-.16-.03-.32-.03-.64,0-.5-.03-.75-.05-1-.02-.16-.04-.31-.04-.63,0-.56-.07-.89-.14-1.2-.04-.15-.05-.21-.05-.42,0-.18.01-.22.05-.37.09-.32.17-.67.17-1.25v-1.62c0-.25.02-.33.05-.49.05-.24.11-.56.11-1.12,0-.27.02-.41.04-.54.04-.24.09-.54.09-1.07,0-.8-.26-1.3-.46-1.66,0-.47-.03-.72-.05-.96-.02-.16-.04-.31-.04-.62,0-.22.02-.29.05-.45.07-.31.13-.63.13-1.22l.04-.09c.15-.35.31-.78.31-1.47,0-.74-.2-1.2-.38-1.56l-.03-.11.04-.09c.15-.35.31-.78.31-1.47,0-.32.02-.48.03-.64.03-.25.05-.49.05-.98,0-.6-.09-.96-.19-1.29-.04-.14-.05-.17-.05-.33,0-.06,0-.11,0-.16.12,0,.22,0,.31.02.22.01.45.03.9.03.27,0,.41.02.54.04.23.04.52.08,1.04.08.17,0,.2,0,.35.05.31.09.66.17,1.24.17s.87-.06,1.11-.11c.16-.03.24-.05.48-.05.42,0,.86.05,1.33.1h.04c0,.05.01.11.02.16v.17c-.06.27-.11.4-.16.53-.08.22-.19.49-.3,1.01-.08.38-.13.57-.17.75-.05.2-.1.4-.18.81-.13.61-.1,1.01-.06,1.36q.02.14,0,.26c-.03.12-.03.13-.1.25-.18.3-.37.65-.5,1.26-.08.36-.12.53-.17.71-.06.21-.11.43-.21.86-.03.16-.07.26-.11.35-.19.53-.33,1.08-.03,2.05.4,1.27,1.33,1.55,1.67,1.63.11.1.13.12.2.23.17.26.38.54.8.91.4.34.66.5.85.62.13.08.2.12.37.27.18.16.26.25.33.34.14.17.33.4.72.74.32.28.49.41.66.54.13.1.26.2.51.42.04.03.08.06.11.09-.04.06-.08.13-.11.2-.23.42-.32.65-.41.88-.05.13-.1.26-.24.51-.12.22-.2.33-.28.43-.17.22-.33.44-.56.85-.25.45-.34.74-.43,1.02-.04.15-.06.21-.16.39l.96.53s-.04.02-.07.03l-1-.43c-.27.22-.58.51-.89,1.07-.23.41-.32.63-.41.84-.06.14-.12.28-.26.53-.32.58-.39,1.02-.42,1.38v.02s-.06.08-.11.14c-.22.27-.34.4-.46.53-.16.17-.31.34-.6.69-.34.42-.5.71-.64.99-.07.14-.11.21-.25.38-.24.3-.37.45-.49.6-.14.16-.27.32-.54.65-.22.28-.34.41-.47.54-.02.02-.04.04-.06.06-.06,0-.11-.02-.17-.02-.54,0-.85.05-1.08.09-.16.03-.26.04-.52.04s-.4-.02-.54-.04c-.24-.04-.53-.08-1.06-.08ZM136.53,114.99c-.14.22-.27.45-.38.68-.07.15-.13.3-.19.45-.06.14-.14.35-.21.46-.06.02-.12.04-.18.07-.25.1-.57.22-.89.42-.15.09-.36.16-.71.25l-.2.06c-.37.1-.66.26-.89.39-.06.03-.12.07-.19.1-.43,0-.66.03-.89.05-.16.02-.32.03-.64.03q-.12,0-.25-.05c-.35-.12-.74-.25-1.38-.25-.34,0-.51-.01-.68-.03-.24-.02-.48-.04-.95-.04-.83,0-1.34.27-1.63.44-.42,0-.63,0-.84,0-.2,0-.39,0-.88-.02-.36-.18-.81-.36-1.54-.36-.79,0-1.28.24-1.6.41-.29-.18-.81-.48-1.66-.48-.72,0-1.16.18-1.52.35l-.11.03c-.5,0-.75.03-1,.05-.16.02-.32.04-.63.04h-1.63c-.18,0-.21,0-.36-.05-.32-.09-.68-.18-1.27-.18-.63,0-1.02.11-1.36.23-.14.05-.14.05-.27.05-.18,0-.22-.01-.37-.05-.25-.07-.63-.17-1.26-.17-.22,0-.29-.02-.45-.05-.31-.07-.63-.13-1.18-.13-.7,0-1.14.17-1.49.32l-.08.02c-.29-.19-.82-.51-1.69-.51-.69,0-1.12.16-1.47.3l-.16.04c-.17,0-.2,0-.35-.05-.32-.09-.69-.18-1.28-.18-.33,0-.5-.02-.67-.03-.24-.02-.48-.04-.96-.04-.81,0-1.31.26-1.63.42h-1.73s-.07-.03-.1-.05c-.34-.13-.76-.28-1.43-.28-.25,0-.34-.02-.5-.05-.24-.04-.56-.11-1.13-.11h-1.63c-.83,0-1.34.28-1.62.45-.08,0-.29-.09-.43-.14-.2-.08-.4-.15-.6-.21-.23-.06-.46-.11-.7-.15-.1-.02-.25-.04-.33-.07-.06-.07-.11-.16-.16-.24-.15-.22-.3-.44-.47-.63-.26-.29-.54-.5-.78-.66.06-.32.12-.73.04-1.19-.08-.45-.26-.82-.4-1.09-.02-.04-.04-.08-.06-.12.05-.35.13-.65.2-.82.04-.06.19-.21.29-.3.18-.18.36-.36.52-.56.05-.06.07-.08.07-.08.03-.03.07-.04.1-.06.24-.14.65-.37,1.1-.93.34-.42.5-.71.64-.99.07-.14.11-.21.25-.39.3-.36.43-.56.56-.75.1-.14.19-.28.41-.55.39-.48.54-.83.67-1.15.05-.14.06-.15.15-.27q.07-.08.18-.15c.24-.14.63-.37,1.08-.92.22-.28.34-.41.47-.54.15-.17.31-.34.59-.69.25-.31.37-.46.5-.61.13-.16.27-.32.53-.64.34-.42.5-.7.64-.98.07-.14.11-.21.25-.38.22-.27.34-.4.46-.53.16-.17.31-.34.6-.69.05-.06.08-.11.12-.16.11-.11.21-.24.29-.38.03-.05.05-.1.07-.15.05-.09.1-.17.14-.24.08-.14.12-.22.28-.42.29-.36.43-.55.56-.74.1-.14.19-.27.41-.54,0,0,.01,0,.02,0,.29-.12.82-.33,1.35-.98.24-.3.37-.44.49-.59.14-.16.28-.32.55-.66.32-.39.45-.61.59-.82.08-.13.16-.26.35-.49.19-.24.3-.34.41-.45.18-.18.37-.35.68-.74.28-.34.41-.52.54-.7.11-.15.22-.3.45-.58.44-.54.59-.99.69-1.36l.05-.12c.12-.14.21-.23.28-.3.4-.39.65-.72.91-1.45.3-.85.34-1.08.34-1.92v-.18c0-.21.01-.28.05-.43.07-.31.13-.63.13-1.18,0-.63-.12-1.02-.24-1.36q-.05-.13-.05-.25c0-.5-.04-.78-.09-1.08-.03-.17-.04-.26-.04-.53,0-.51-.03-.76-.07-1.02-.02-.15-.04-.3-.04-.59q0-.1.04-.22c.09-.25.25-.68.25-1.38,0-.37,0-.56.01-.74,0-.21.01-.43.01-.86,0-.64-.12-1.03-.24-1.37q-.05-.13-.05-.24c0-.22.01-.28.05-.44.07-.31.13-.62.13-1.16,0-.43,0-.64-.01-.86,0-.19-.01-.37-.01-.74,0-.61-.09-.98-.16-1.22-.04-.15-.05-.2-.05-.39,0-.3.02-.45.04-.6.03-.25.06-.5.06-1.07l.04-.09c.14-.34.3-.77.3-1.45,0-.37,0-.55.02-.73,0-.22.02-.44.02-.87,0-.29.02-.44.04-.59.03-.25.07-.51.07-1.02,0-.83-.3-1.35-.53-1.7,0-.3,0-.46.01-.63,0-.22.02-.44.02-.87,0-.31.02-.46.04-.61.03-.25.06-.5.06-.99q0-.1.04-.22c.1-.26.25-.68.25-1.39,0-.54-.06-.86-.13-1.16-.04-.16-.05-.22-.05-.44,0-.6-.1-.97-.2-1.3-.04-.14-.05-.16-.05-.3v-.09c.06,0,.12,0,.18,0,.32,0,.64-.05.96-.09.14-.02.29-.04.43-.05.04.02.09.05.14.07.35.19.88.47,1.55.47.41.04.8-.07,1.1-.13.18-.03.36-.07.45-.07h0c.2,0,.39.03.58.06.33.05.65.09.96.09.49,0,.88-.09,1.2-.16.12-.03.24-.06.34-.07.19,0,.41.04.64.08.24.04.51.08.79.1,0,.17-.02.28-.03.39-.03.24-.05.49-.05.97,0,.46.02.69.03.91.01.17.03.33.03.67,0,.45.01.67.03.9.01.17.02.34.02.68,0,.38,0,.57,0,.75,0,.21,0,.41,0,.82,0,.59.09.95.19,1.27.04.14.05.16.05.3,0,.27-.02.41-.04.54-.03.23-.08.51-.08,1.03,0,.48.03.72.05.96.02.15.03.31.03.61,0,.15,0,.16-.05.3-.1.32-.19.68-.19,1.27,0,.18-.01.21-.05.36-.08.31-.16.65-.16,1.21,0,.72.19,1.17.39,1.58,0,.42,0,.63.01.84,0,.18.01.37.01.73,0,.27-.02.41-.04.54-.03.23-.08.51-.08,1.03,0,.55.06.87.11,1.1.03.16.05.24.05.47,0,.42,0,.62.01.83,0,.17,0,.35,0,.68-.16.28-.47.79-.47,1.64,0,.59.09.95.19,1.27.04.14.05.16.05.3,0,.41,0,.62,0,.82,0,.19,0,.38,0,.75,0,.41,0,.62,0,.83,0,.19,0,.37,0,.83l-.04.09c-.13.33-.27.74-.27,1.4,0,.48.02.71.05.95.02.16.03.31.03.62,0,.85.1,1.19.33,1.75.04.09.08.2.14.35l.11.29c.24.67.39.95.95,1.6.25.29.37.43.48.58.13.17.27.33.55.66.23.27.34.41.45.55.14.18.27.36.57.7.46.54.87.76,1.11.89q.11.06.17.13c.05.06.06.08.06.08.02.04.03.07.04.1.12.34.28.74.71,1.24.47.55.91.77,1.34.96.3.35.46.51.62.67.12.12.24.25.47.54.07.3.19.85.72,1.47.37.43.63.64.82.79.13.1.19.15.34.33.46.54.88.76,1.23.92,0,0,0,0,0,0,.03.36.13,1,.69,1.65.4.47.72.68.92.83.13.09.16.11.28.25.46.53.86.76,1.1.89q.11.06.17.13c.15.17.18.24.26.38.15.27.31.55.66.95l1.04,1.22c.22.26.32.39.42.53.14.19.27.37.58.72.18.21.26.33.33.45.12.2.28.44.62.84.43.5.81.73,1.13.9.03.02.06.03.09.05l.11.12.03.1c.12.35.28.77.71,1.29.05.06.12.25.19.42.07.18.13.35.21.52.14.3.3.54.43.74.05.07.1.14.14.21.03.21.09.44.14.66.03.11.06.25.08.35-.04.08-.12.21-.18.3Z"/><path class="cls-1" d="M123.92,104.19l-24.98-.13-5.65,6.94c-1.1.96-.19,2.45,1.51,2.45h33.44c1.67,0,2.59-1.45,1.54-2.42l-5.85-6.84Z"/></svg>