<?xml version="1.0" encoding="UTF-8"?><svg id="_レイヤー_1" xmlns="http://www.w3.org/2000/svg" viewBox="0 0 141.73 141.73"><defs><style>.cls-1{fill:#231815;}</style></defs><path class="cls-1" d="M124.32,72.43c0-.09,0-.17.01-.25.03-.42.07-1.14-.38-1.91-.29-.49-.68-1.17-1.45-1.62l-.11-.06c-.08-.05-.18-.1-.27-.16.04-.2.07-.41.07-.68,0-.55-.07-.89-.15-1.18-.04-.14-.04-.18-.04-.35,0-.31.01-.47.03-.62.02-.23.04-.46.04-.91s-.02-.67-.03-.89c-.01-.16-.02-.32-.02-.64,0-.12,0-.12.04-.26.1-.32.2-.68.2-1.28,0-.51-.05-.82-.12-1.11-.03-.15-.04-.21-.05-.37.02-.07.05-.14.07-.2.17-.42.67-1.7-.5-2.81-1.13-1.07-2.37-.6-2.78-.44-.06.03-.13.06-.18.07-.28,0-.42-.02-.55-.04-.23-.03-.53-.08-1.05-.08-.74,0-1.23.23-1.59.44-.31-.2-.82-.48-1.62-.48s-1.26.25-1.61.47c-.3-.19-.81-.44-1.59-.44-.61,0-.98.09-1.22.16-.15.04-.19.05-.38.05s-.23-.01-.38-.05c-.24-.06-.61-.16-1.22-.16-.72,0-1.16.18-1.6.38-.28,0-.42-.02-.56-.04-.16-.02-.35-.05-.63-.06,0-.05,0-.08,0-.14,0-.56-.06-.89-.1-1.12-.03-.17-.05-.27-.05-.54,0-.22.02-.29.05-.44.07-.31.14-.65.14-1.19.02-.01.05-.02.07-.04.08,0,.09,0,.2.05.27.1.71.27,1.44.27.15,0,.17,0,.32.05.34.11.73.22,1.36.22.09,0,.18.02.35.06.2.05.5.12.86.12.53,0,1.18-.15,1.81-.76,1.13-1.09.73-2.31.58-2.77-.03-.08-.07-.21-.07-.24,0-.26.02-.35.05-.52.04-.23.1-.55.1-1.1,0-.48-.02-.72-.04-.95-.01-.17-.03-.34-.03-.67,0-.73-.19-1.18-.39-1.62,0-.22.01-.29.05-.44.07-.31.13-.63.13-1.18,0-.31.02-.46.04-.62.03-.25.06-.51.06-1.01,0-.03,0-.05,0-.07.22.05.53.11,1.04.11.15,0,.17,0,.3.04.1.03.21.05.32.07.03.06.05.12.08.17.03.07.05.15.08.23.16.48.42,1.29,1.25,1.77.47.27.94.34,1.36.34.27,0,.51-.03.71-.05.1-.01.2-.03.3-.03h.16c.57,0,1.36.01,2.11-.42.76-.44,1.14-1.13,1.4-1.59l.09-.17c.04-.07.09-.13.15-.2.3-.4.79-1.06.79-1.97,0-.76-.24-1.63-.65-2.34-.44-.75-1.15-1.1-1.62-1.32-.09-.04-.17-.08-.24-.12l-.09-.05c-.47-.28-1.18-.69-2.1-.69s-1.72.39-2.22.68c-.44.25-1.25.72-1.74,1.56-.14.25-.22.49-.27.73-.06,0-.11,0-.18,0-.17,0-.21,0-.34-.04-.22-.05-.54-.12-1.09-.12-.11,0-.19-.01-.26-.02-.69-.1-1.51-.07-2.34.88-1.02,1.16-.57,2.24-.42,2.6.01.03.03.06.03.06,0,.31-.02.46-.04.62-.03.25-.06.51-.06,1.01,0,.22-.01.29-.05.44-.07.31-.13.63-.13,1.18,0,.73.19,1.18.39,1.62,0,.48.02.72.04.95.01.17.03.34.03.67,0,.26-.02.35-.05.52-.04.23-.1.55-.1,1.1,0,.07,0,.15,0,.21-.05,0-.11,0-.16,0-.15,0-.17,0-.32-.05-.34-.11-.73-.22-1.36-.22q-.11,0-.24-.05c-.27-.1-.71-.27-1.44-.27-.06,0-.11.01-.17.01,0-.25.02-.4.04-.53.04-.24.08-.54.08-1.08,0-.43,0-.64,0-.86,0-.2,0-.4,0-.87l.04-.1c.15-.35.31-.79.31-1.49,0-.81-.32-1.47-.56-1.95-.05-.11-.11-.21-.15-.32-.26-.63-.61-1.36-1.22-1.97-.58-.58-1.27-.76-1.73-.88-.11-.03-.23-.06-.32-.09-.08-.04-.16-.1-.24-.16-.2-.14-.48-.34-.82-.49-.01-.05-.02-.1-.04-.15-.04-.15-.05-.21-.05-.4,0,0,0-.01.02-.02.16-.28.46-.8.46-1.67,0-.38,0-.57.01-.77,0-.22.02-.45.02-.9,0-.57-.07-.91-.15-1.24-.04-.16-.05-.21-.05-.42s.01-.28.05-.44c.08-.32.15-.66.15-1.23,0-.85-.3-1.38-.53-1.74,0-.1.01-.13.05-.26.1-.33.2-.71.2-1.33,0-.55-.06-.88-.13-1.19-.04-.17-.05-.24-.05-.48,0-.29.02-.44.04-.58.04-.24.08-.54.08-1.08,0-.37.01-.55.02-.73.01-.23.03-.47.03-.94,0-.4-.04-.7-.1-.95.2-.08.39-.17.57-.28.73-.42,1.19-1.1,1.54-1.71l.1-.17c.28-.46.7-1.15.7-2.02s-.48-1.55-.77-1.94c-.05-.07-.1-.13-.14-.2-.39-.68-.92-1.21-1.55-1.58-.73-.42-1.46-.37-1.9-.34-.08,0-.17.01-.23.02-.07,0-.14-.03-.21-.04-.43-.09-1.25-.25-2.04.21-.59.34-1.31.82-1.75,1.57-.49.84-.26,1.7-.14,2.16.01.05.03.1.04.15-.01.05-.02.1-.04.15-.11.45-.32,1.29.16,2.12.45.77,1.19,1.07,1.63,1.26.08.03.16.06.22.09.06.04.12.09.18.13.02.02.06.04.08.06.03.41.11.7.19.96.04.15.05.18.05.34,0,.37-.01.55-.02.73-.01.23-.03.47-.03.94,0,.29-.02.44-.04.58-.04.24-.08.54-.08,1.08s.06.88.13,1.19c.04.17.05.24.05.48,0,.16,0,.18-.05.33-.1.33-.2.71-.2,1.33,0,.85.3,1.38.53,1.74,0,.16-.02.22-.05.36-.08.32-.15.66-.15,1.23s.07.91.15,1.24c.04.16.05.21.05.42,0,.38,0,.58-.01.77,0,.22-.02.43-.02.87,0,0,0,.01-.02.02-.16.28-.46.8-.46,1.67,0,.12,0,.23.01.33-.23-.04-.52-.07-1-.07-.39,0-.59,0-.79-.01-.22,0-.44-.01-.88-.01-.83,0-1.34.28-1.71.49-.06,0-.1,0-.15,0,.01-.15.02-.31.02-.52,0-.62-.09-.98-.16-1.23-.03-.12-.04-.17-.05-.28.2-.3.54-.83.54-1.72,0-.51-.03-.76-.06-1.02-.02-.15-.04-.3-.04-.6,0-.07,0-.13,0-.2.03-.02.06-.06.08-.07.5-.29,1.13-.72,1.58-1.5.04-.06.08-.13.12-.2.28-.42.69-1.06.69-1.93,0-.75-.23-1.56-.62-2.24-.46-.8-1-1.37-1.59-1.71-.8-.46-1.6-.3-2.08-.21-.08.02-.16.04-.21.04-.09,0-.18,0-.27-.01-.48-.03-1.2-.09-1.93.33-.83.48-1.29,1.28-1.51,1.66-.42.73-.37,1.46-.34,1.89,0,.08.01.17.01.26,0,.91.27,1.51.55,1.98.03.06.04.12.07.18.14.42.4,1.2,1.21,1.66l.1.06c.21.12.47.27.75.4.01.26.03.45.05.62.02.13.03.26.04.48-.2.3-.54.83-.54,1.73,0,.62.09.98.16,1.22.04.15.05.2.05.39,0,.04,0,.08,0,.12-.59.03-.98.18-1.31.33l-.13.04c-.21,0-.27-.01-.43-.05-.32-.08-.66-.15-1.24-.15s-.93.08-1.25.16c-.15.04-.21.05-.4.05-.18,0-.31,0-.43,0-.02-.67-.19-1.11-.36-1.46l-.03-.1c0-.25.02-.33.05-.5.05-.24.12-.58.12-1.16,0-.54-.06-.87-.12-1.17-.04-.17-.05-.24-.05-.48l.03-.1c.18-.37.36-.82.36-1.55,0-.32.02-.47.04-.63.03-.25.06-.51.06-1.02,0-.72-.17-1.16-.34-1.52l-.04-.12c0-.13,0-.13.05-.28.12-.34.23-.73.23-1.38,0-.37,0-.55.02-.74,0-.11.01-.23.02-.37.08-.04.17-.08.25-.12.74-.42,1.19-1.1,1.54-1.71l.1-.17c.28-.46.7-1.15.7-2.02s-.48-1.55-.76-1.94c-.05-.07-.1-.13-.14-.2-.39-.68-.92-1.21-1.55-1.58-.73-.42-1.46-.37-1.9-.34-.08,0-.17.01-.23.02-.07,0-.14-.03-.21-.04-.43-.09-1.24-.26-2.05.21-.59.34-1.31.82-1.74,1.57-.49.84-.26,1.7-.14,2.16.01.05.03.1.04.15-.01.05-.03.1-.04.15-.11.45-.32,1.29.16,2.12.45.77,1.19,1.07,1.63,1.25.08.03.16.06.22.1.06.04.12.09.18.13.14.1.32.23.53.36,0,.03,0,.07,0,.1-.01.23-.02.45-.02.91,0,.13,0,.13-.05.27-.12.34-.23.73-.23,1.38,0,.72.17,1.16.34,1.52l.04.12c0,.32-.02.47-.04.63-.03.25-.06.51-.06,1.02l-.03.1c-.18.37-.36.82-.36,1.55,0,.54.06.87.12,1.17.04.17.05.24.05.48s-.02.33-.05.5c-.05.24-.12.58-.12,1.16,0,.74.19,1.19.37,1.56l.04.13-.04.09s-.01.04-.02.05c-.02,0-.04.01-.06.02-.67.28-1.29.71-1.89,1.3-.41.41-.91.98-1.26,1.74,0,0,0,0-.01-.01-.13-.13-.25-.28-.37-.42-.23-.27-.48-.58-.81-.86-.33-.29-.67-.5-.97-.68-.16-.1-.32-.2-.47-.31-.3-.24-.63-.45-.96-.66-.16-.1-.32-.21-.47-.31-.15-.1-.28-.23-.41-.35-.26-.24-.56-.5-.94-.74-.44-.27-.88-.4-1.23-.5-.14-.04-.33-.1-.4-.13-.17-.09-.34-.2-.5-.3-.32-.2-.64-.4-.98-.56-.17-.08-.33-.18-.49-.28-.29-.18-.63-.39-1.02-.55-.35-.15-.72-.27-1.08-.39-.18-.06-.36-.12-.54-.19-.47-.17-.91-.22-1.26-.25-.17-.02-.36-.04-.44-.06-.36-.11-.72-.19-1.08-.27-.19-.04-.38-.08-.58-.13-.4-.1-.78-.15-1.11-.19-.16-.02-.33-.04-.48-.06-.06-.04-.13-.09-.19-.13-.33-.23-.82-.58-1.48-.68-.64-.1-1.18.05-1.57.15-.04.01-.08.02-.13.04-.03-.02-.06-.04-.08-.06-.36-.24-.9-.59-1.62-.64-.66-.04-1.18.16-1.57.31-.08.03-.16.07-.24.09-.35,0-.68.03-1.02.06-.2.02-.39.04-.64.04-.27.01-.37,0-.54-.03-.26-.04-.62-.09-1.23-.06-.45.03-.68.04-.91.06-.21.02-.42.03-.84.06-.89.05-.89,0-1.79.07l-.13.02c-.4.06-.79.14-1.19.22l-.48.1c-.11.01-.23-.02-.35-.03-.38-.05-.9-.11-1.47.02-.66.15-1.12.52-1.45.79-.07.05-.13.11-.2.16-.33.09-.66.21-.98.33-.19.07-.38.14-.58.2-.09.03-.28.05-.46.07-.36.04-.8.09-1.27.26-.19.07-.38.12-.57.17-.33.09-.71.19-1.1.35-.18.08-.37.13-.57.19-.33.1-.71.22-1.1.41l-.43.2c-.37.17-.74.34-1.09.53-.45.24-.78.54-1.04.79-.1.09-.24.23-.3.26-.17.1-.34.19-.52.28-.33.17-.65.34-.95.54-.44.29-.75.66-.98.92-.08.1-.2.24-.25.27-.15.11-.3.2-.45.29-.3.18-.63.38-.96.66-.12.1-.26.18-.4.26-.3.18-.67.41-1.02.74l-.3.29c-.32.31-.65.62-.93.95-.12.13-.25.26-.37.39-.26.26-.56.56-.82.92-.39.53-.72,1.04-.99,1.49-.31.53-.39,1.06-.46,1.45-.02.11-.03.22-.05.29-.05.1-.13.19-.21.28-.24.3-.57.71-.75,1.28-.21.65-.12,1.25-.06,1.66.01.1.05.19.05.19-.12.57-.21,1.14-.27,1.74-.05.54-.11,1.11-.1,1.67-.02.09-.05.18-.08.27-.13.39-.31.93-.25,1.58.05.53.24.96.38,1.31.06.14.13.31.14.37.01.11,0,.22-.01.34-.03.38-.06.89.09,1.45.17.62.55,1.06.81,1.36-.04.2-.06.44-.02.7,0,.1-.01.18-.02.24v.13c-.03.12-.09.27-.2.58-.05.13-.13.25-.21.4-.17.3-.38.67-.54,1.13-.16.44-.19.86-.22,1.2-.01.17-.03.39-.06.48-.09.25-.18.52-.27.78-.09.26-.18.54-.24.74-.05.09-.13.17-.2.25-.25.29-.6.7-.8,1.25-.2.53-.2,1.04-.21,1.42,0,.12,0,.24,0,.3-.08.22-.19.44-.29.66-.14.29-.27.58-.39.88-.15.4-.23.77-.29,1.1-.04.22-.08.42-.13.54-.08.21-.19.41-.3.61-.16.3-.31.6-.43.9-.15.38-.24.73-.31,1.04-.04.17-.08.33-.13.49-.06.06-.13.12-.19.18-.3.28-.72.65-.97,1.24-.1.23-.19.46-.28.68-.12.29-.23.57-.35.84-.44.99-.08,1.88.11,2.36.03.07.06.14.07.15,0,.08,0,.17,0,.26-.02.51-.07,1.45.64,2.21.73.79,1.76.97,2.44,1.09l.22.02c.18,0,.24.02.38.05.31.07.63.14,1.18.14.72,0,1.18-.22,1.5-.38.37,0,.56-.01.75-.02.17,0,.34-.01.69-.02.4,0,.6-.01.8-.02.17,0,.34-.02.68-.02.05,0,.09,0,.14,0,0,.05,0,.11,0,.16h0c-.14.29-.39.82-.33,1.67.06.78.36,1.26.6,1.59-.15.37-.3.83-.24,1.55.05.69.25,1.11.43,1.44l.04.11c.03.42.06.64.08.85.02.18.04.36.07.73l.16,2.18c.02.29.03.48.09,1.11.02.1,0,.21,0,.31-.02.42-.05,1.04.26,1.7.3.64.76,1.04,1.09,1.33.09.08.18.15.25.23.52.58,1.08.91,1.54,1.18.05.05.09.11.14.16.31.37.83.98,1.71,1.15.83.16,1.51-.14,1.96-.35.03-.01.06-.03.09-.04.27.13.72.32,1.39.32.32,0,.48.01.64.03.21.02.43.03.86.04.43,0,.64,0,.86-.02.16,0,.33-.02.64-.02.52,0,.81-.05,1.1-.11.14-.03.22-.04.4-.04l.12.03c.34.14.78.29,1.45.26l.49-.06c.42-.06.77-.09,1.09-.1.31,0,.63-.02.94-.06.16-.02.41-.05.48-.03.19.04.45.15.72.27.2.09.4.17.6.25.22.08.44.15.66.22.27.08.53.16.69.25.1.05.27.23.42.38.21.21.42.41.64.59.18.14.36.36.58.6.12.14.25.29.38.43.21.22.44.42.68.62.15.12.33.27.39.35.13.19.25.46.39.76.08.18.16.35.24.53.08.15.15.31.23.46.16.31.31.59.39.84.04.14.06.38.09.63.02.27.05.54.09.81.05.31.06.65.07,1.05v.32c.01.7.18,1.13.33,1.48l.03.11c0,.18-.01.22-.05.37-.07.24-.17.61-.17,1.23,0,.29-.02.44-.04.58-.03.23-.07.51-.08,1.02,0,.62.09.99.15,1.23.04.15.05.19.05.38,0,.59.08.95.17,1.27.04.15.05.17.05.33l-.04.13c-.16.35-.32.78-.33,1.48,0,.29-.02.43-.04.57-.04.23-.08.52-.08,1.04,0,.12-.02.21-.04.29-.23,1.23.22,2.12,1.36,2.64.28.13.67.26,1.1.26.58,0,1.23-.24,1.78-1.03.07-.1.09-.13.12-.15.28-.22.43-.33.58-.43.19-.13.38-.27.75-.55.5-.39.73-.71.88-.91.09-.12.12-.16.27-.28q.09-.07.22-.12c.35-.12.74-.27,1.25-.67.65-.52.88-1.06,1.03-1.46.26-.2.4-.31.54-.41.18-.13.36-.26.71-.54l-1.05-1.33,1.15,1.29c.39-.09.86-.23,1.43-.68.28-.22.43-.32.57-.42.19-.13.38-.26.75-.55.29-.23.44-.33.58-.44.19-.13.38-.26.74-.55.56-.44.8-.84.98-1.19l.09-.12c.29-.23.44-.34.6-.45.18-.13.37-.26.72-.54.13-.1.16-.11.3-.17.32-.13.67-.28,1.14-.66.44-.35.65-.6.86-.85.1-.13.14-.18.32-.32q.08-.06.21-.1c.27-.08.71-.23,1.28-.67.59-.46.82-.9,1.04-1.34.23-.18.36-.25.48-.33.21-.12.46-.27.88-.6.27-.21.41-.3.55-.4.2-.13.41-.27.79-.57.29-.23.45-.34.6-.45.18-.13.37-.26.72-.54.58-.45.82-.88,1-1.24l.06-.09.1-.04c.39-.09.86-.23,1.44-.68.34-.27.51-.41.67-.55.15-.12.3-.25.61-.49.23-.18.35-.25.48-.33.21-.12.47-.27.89-.6l1.29-1.03c.69-.54.9-.91,1.13-1.36.05-.1.11-.22.21-.39.84-1.36.27-2.31-.35-2.86-.09-.08-.15-.14-.24-.25-.13-.19-.29-.38-.46-.59-.16-.19-.32-.4-.48-.63-.24-.35-.53-.62-.76-.83-.12-.11-.27-.24-.31-.31-.21-.32-.44-.57-.65-.79-.1-.1-.19-.2-.26-.29,0-.05,0-.1-.01-.15-.03-.39-.07-.99-.42-1.55-.28-.46-.63-.77-.9-.99-.08-.07-.16-.13-.18-.13-.04-.08-.1-.28-.14-.45-.07-.27-.17-.61-.33-.96-.25-.52-.61-.87-.88-1.13-.03-.03-.07-.06-.1-.1-.02-.13-.02-.24-.01-.31.06-.1.12-.21.18-.31.19-.34.41-.71.59-1.09.06-.09.14-.16.21-.25.26-.28.61-.67.85-1.2.16-.35.26-.69.35-.99.06-.21.12-.42.21-.62.15-.36.25-.71.33-1.02.06-.2.11-.41.19-.61.17-.42.25-.83.31-1.16.03-.14.05-.29.08-.4.05-.05.1-.09.16-.14.32-.29.77-.69,1.02-1.34.17-.45.23-.88.28-1.22.02-.17.05-.38.08-.46.12-.34.21-.68.3-1.03.05-.21.1-.42.17-.61.03-.07.15-.24.23-.35.21-.3.47-.67.64-1.17.2-.6.17-1.15.15-1.55,0-.11-.02-.21-.03-.22.12-.39.21-.76.29-1.12.04-.19.09-.38.13-.55.02-.06.13-.23.21-.34.21-.32.51-.75.61-1.33l.07-.36c.06-.28.11-.56.16-.84l.02-.13c.08-.53.16-1.06.22-1.57,0-.05,0-.1,0-.15.18.02.38.04.64.04.3,0,.54-.03.76-.08-.07.24-.12.5-.12.84,0,.53.05.83.08,1.06.02.13.04.27.04.53,0,.43,0,.64.01.86,0,.18.01.37.01.74,0,.33-.01.49-.03.66-.02.24-.04.47-.04.94,0,.54.06.86.13,1.16.03.16.05.22.05.43,0,.33-.01.5-.03.66-.02.23-.04.47-.04.93,0,.61.1.98.21,1.31.04.14.05.15.05.29,0,.39,0,.58,0,.77,0,.21,0,.41,0,.82q0,.12-.05.25c-.12.34-.23.72-.23,1.35s.1.98.2,1.3c.04.14.05.15.05.3,0,.12,0,.13-.05.26-.11.33-.22.71-.22,1.34,0,.52.04.81.07,1.04.02.14.04.28.04.56,0,.22-.02.29-.05.45,0,.04-.02.08-.02.12-.02.01-.04.01-.05.02-.69.4-1.18.88-1.55,1.51-.04.06-.08.13-.13.19-.27.38-.72,1.02-.72,1.9,0,.4.05,1.41.55,2.27.46.8,1.22,1.07,1.68,1.23.07.03.14.05.13.03.05.04.1.09.15.14.35.33.99.93,1.97.93.87,0,1.53-.44,1.96-.72.07-.05.14-.09.25-.16.49-.28,1.22-.71,1.66-1.48.38-.66.6-1.48.6-2.24,0-.95-.56-1.58-.86-1.92-.04-.05-.09-.1-.1-.11-.25-.43-.63-1.09-1.44-1.56-.22-.13-.44-.21-.65-.28,0-.1,0-.21,0-.33,0-.52-.04-.81-.07-1.04-.02-.14-.04-.28-.04-.56,0-.12,0-.13.05-.26.11-.33.22-.71.22-1.34s-.1-.98-.2-1.31c-.04-.14-.05-.15-.05-.29q0-.12.05-.25c.11-.32.22-.69.23-1.27.03.06.06.13.1.19.46.8,1.22,1.07,1.68,1.23.07.02.14.05.13.03.05.04.1.09.15.14.35.33.99.93,1.96.93.87,0,1.52-.44,1.96-.72.07-.05.14-.09.25-.16.49-.28,1.22-.71,1.67-1.48.38-.66.6-1.48.6-2.24,0-.96-.56-1.58-.86-1.92-.04-.05-.09-.09-.1-.11-.25-.43-.63-1.09-1.44-1.56-.23-.14-.46-.22-.68-.29v-.02c0-.45-.02-.67-.03-.89-.01-.17-.02-.35-.02-.7,0-.42,0-.62,0-.83,0-.19,0-.38.01-.79.13-.26.38-.76.38-1.55,0-.68-.18-1.13-.32-1.43.03,0,.06,0,.09,0,.24.03.48.05.96.05.77,0,1.27-.25,1.61-.44.08.01.16.04.24.06.49.12,1.22.3,2.04-.04.81-.34,1.22-.98,1.49-1.41.05-.08.1-.17.15-.23l.18-.18c.39-.37.87-.83,1.18-1.58.34-.82.34-1.59.34-2.21,0-.18,0-.21.05-.36.08-.29.16-.62.18-1.1.01,0,.02,0,.03,0,.23.03.52.07,1.04.07.72,0,1.16-.18,1.6-.38.19,0,.23.01.38.05.24.06.61.16,1.22.16s.98-.09,1.22-.16c.12-.03.17-.04.29-.05.29.18.82.51,1.69.51.75,0,1.24-.24,1.6-.46.31.2.82.47,1.61.47s1.34-.29,1.7-.51c.22,0,.34.02.46.04.24.03.51.04,1.07.08,0,.48.06.78.12,1.06.03.15.04.21.04.42,0,.12,0,.12-.04.26-.1.32-.2.68-.2,1.28,0,.45.02.67.03.89.01.16.02.32.02.64s-.01.47-.03.62c-.02.23-.04.46-.04.91,0,.55.07.89.15,1.18.04.14.04.18.03.38-.06.12-.14.29-.21.52-.2.09-.37.18-.5.25-.8.46-1.23,1.21-1.51,1.7-.36.62-.54,1.34-.54,2.17v.18c0,.56-.02,1.33.41,2.06.44.76,1.15,1.07,1.58,1.26.08.03.15.06.28.13.44.26,1.12.65,2.02.65.63,0,1.44-.06,2.19-.49.63-.36,1.19-.94,1.58-1.61.45-.78.32-1.55.26-1.96-.01-.07-.03-.14-.03-.22ZM79.48,45.96s-.08-.07-.13-.09h.14s-.01.06-.01.09ZM82.41,65.62l-.03.49c-.02.3,0,.61.01.92.01.24.03.47,0,.64-.05.46-.12.94-.2,1.41l-.02.14c-.04.23-.08.46-.13.69l-.06.28c-.04.06-.08.12-.12.18-.21.32-.5.75-.66,1.33-.06.22-.11.45-.17.69-.06.28-.13.57-.22.87-.17.54-.14,1.05-.12,1.42,0,.11.02.23.03.26-.03.06-.13.21-.21.32-.21.3-.47.67-.64,1.15-.11.3-.19.62-.27.93-.06.22-.11.45-.19.67-.16.43-.22.85-.26,1.18-.02.12-.04.27-.06.37-.05.05-.1.09-.15.14-.32.29-.75.68-1,1.3-.17.42-.24.82-.3,1.15-.03.18-.07.39-.11.48-.13.33-.23.67-.32,1-.06.2-.1.4-.18.58-.14.33-.24.66-.34.99-.06.2-.11.4-.19.57-.03.06-.17.21-.26.31-.24.26-.54.59-.75,1.03-.16.33-.33.63-.48.89-.1.17-.19.34-.28.49-.42.78-.48,2.01-.13,3.05.2.6.6.99.89,1.28.08.08.17.15.21.21.05.11.07.23.11.36.09.34.21.77.46,1.22.27.48.65.81.92,1.04.05.04.1.08.14.12,0,.04,0,.08,0,.12.03.41.08,1.02.45,1.61.23.36.49.64.71.87.11.12.23.24.32.37.27.41.59.7.85.93.09.08.19.16.25.24.21.31.43.58.64.84.12.15.23.29.33.42.03.04.05.07.07.1-.04.04-.1.09-.18.15l-1.29,1.03c-.23.18-.35.25-.48.32-.21.12-.47.27-.89.6-.34.27-.51.41-.67.55-.15.12-.3.25-.61.49l-.1.04c-.39.09-.86.23-1.44.68-.57.45-.81.88-.99,1.24l-.06.09c-.3.23-.45.34-.6.46-.18.13-.36.26-.71.54-.27.21-.41.3-.55.4-.2.13-.41.27-.79.57-.23.18-.36.25-.48.33-.21.12-.46.27-.88.6-.59.46-.82.9-1.04,1.34q-.08.06-.21.1c-.27.08-.71.23-1.28.67-.44.35-.66.6-.86.86-.1.13-.14.18-.31.31-.13.1-.16.12-.3.17-.32.13-.67.28-1.14.66-.29.23-.44.34-.59.45-.19.13-.37.26-.72.54-.56.44-.8.84-.98,1.19l-.09.12c-.29.22-.43.33-.58.43-.19.13-.38.26-.74.55-.28.22-.42.32-.57.42-.19.13-.39.27-.76.56l1.05,1.33-1.15-1.29c-.39.09-.86.23-1.43.68-.3.23-.45.34-.6.46-.18.13-.36.26-.71.54-.65.52-.88,1.06-1.03,1.46-.04.03-.07.04-.17.07-.35.12-.74.27-1.25.67-.5.39-.73.71-.89.91-.09.13-.12.16-.27.28-.02.01-.04.03-.06.04h-1.67s1.73-.13,1.73-.13c.16-.35.32-.78.33-1.48,0-.59-.08-.95-.17-1.27-.04-.15-.05-.17-.05-.33,0-.62-.09-.99-.15-1.23-.04-.15-.05-.19-.05-.38,0-.29.02-.44.04-.58.03-.23.07-.51.08-1.02,0-.18.01-.22.05-.37.07-.24.17-.61.17-1.23,0-.71-.16-1.15-.35-1.57v-.45c-.02-.49-.04-.99-.13-1.54-.03-.17-.04-.34-.06-.51-.03-.39-.07-.88-.24-1.39-.17-.53-.4-.98-.61-1.37-.07-.12-.13-.25-.19-.38-.07-.14-.13-.28-.19-.42-.18-.4-.38-.85-.68-1.29-.33-.48-.72-.8-1.03-1.06-.12-.1-.24-.19-.34-.3-.1-.11-.2-.23-.3-.34-.28-.33-.6-.7-1.03-1.04-.12-.1-.24-.22-.35-.33-.29-.29-.65-.65-1.15-.93-.49-.28-.96-.42-1.38-.54-.16-.05-.31-.09-.46-.15-.15-.05-.29-.12-.43-.18-.41-.18-.87-.38-1.42-.49-.25-.05-.48-.06-.7-.06-.3,0-.57.03-.81.06-.15.02-.31.05-.46.04-.6-.01-1.17.07-1.67.14h-.19c-.32-.12-.72-.26-1.35-.27-.51,0-.81.05-1.1.11-.14.03-.22.04-.4.04-.43,0-.64,0-.86.02-.16,0-.32,0-.64.02-.32,0-.48-.01-.64-.03-.21-.02-.43-.03-.85-.04-.27-.13-.78-.39-1.57-.36h-.18c-.38.07-.71.19-.98.31-.2-.23-.47-.5-.83-.71-.41-.23-.62-.37-.79-.56-.17-.18-.35-.35-.54-.51-.07-.06-.15-.13-.2-.17,0-.05,0-.1,0-.15.01-.27.03-.6-.02-.88-.05-.48-.06-.65-.07-.91l-.17-2.21c-.03-.43-.06-.64-.08-.85-.02-.18-.04-.36-.07-.72-.05-.69-.25-1.11-.46-1.49v-.11c.16-.37.31-.83.25-1.55-.06-.76-.34-1.23-.57-1.56.14-.3.35-.81.29-1.58-.01-.14,0-.25,0-.35.04-.67,0-1.45-.87-2.3-.98-.96-1.93-.8-2.4-.73-.08.01-.17.03-.29.03-.41,0-.61.01-.81.02-.17,0-.33.02-.67.02-.4,0-.6.01-.8.02-.17,0-.34.01-.68.02-.72,0-1.18.22-1.5.38-.17-.02-.19,0-.32-.04-.19-.05-.47-.11-.92-.14-.05,0-.11-.02-.17-.03,0-.21,0-.44-.04-.69-.06-.36-.18-.67-.28-.91v-.04c.07-.2.15-.4.24-.61.07-.18.14-.35.22-.53.05-.05.11-.11.17-.16.32-.29.76-.69,1.02-1.32.15-.37.24-.73.32-1.05.05-.2.09-.4.17-.6.08-.2.18-.39.28-.58.16-.31.33-.63.45-.96.16-.41.23-.79.3-1.12.04-.21.08-.42.13-.54.08-.22.19-.43.29-.65.14-.3.28-.6.4-.91.21-.55.21-1.08.22-1.46,0-.09,0-.19,0-.27.05-.08.12-.15.19-.22.25-.29.59-.68.78-1.22.11-.31.21-.62.31-.92.08-.24.15-.46.23-.69.18-.5.22-.97.25-1.34.01-.13.01-.26.04-.36.07-.19.18-.39.3-.61.15-.27.32-.57.44-.92.29-.83.35-1.04.39-1.63,0-.1.01-.22.03-.39l.04-.39h0c.08-.32.15-.8-.04-1.34-.2-.57-.55-.97-.81-1.25-.03-.03-.06-.07-.09-.1,0-.08,0-.17.01-.25.02-.33.05-.73-.04-1.18-.08-.42-.23-.78-.35-1.07-.04-.1-.09-.22-.12-.29.02-.07.05-.14.07-.21.11-.32.26-.77.26-1.29,0-.47.04-.93.09-1.4.05-.48.12-.92.21-1.38.12-.54.04-1.03,0-1.39,0-.05-.02-.1-.02-.15.04-.06.1-.12.14-.18.2-.25.45-.56.63-.97.2-.43.26-.85.31-1.18.02-.11.03-.22.03-.26.21-.36.49-.77.81-1.22.11-.15.29-.33.48-.52.18-.18.37-.37.53-.56.22-.25.47-.49.72-.73l.33-.31c.06-.06.25-.18.4-.27.24-.15.54-.33.84-.58.11-.1.3-.21.5-.33.25-.15.5-.3.74-.48.35-.26.61-.56.81-.8.09-.1.21-.25.26-.28.21-.14.43-.25.65-.37.23-.12.45-.24.67-.37.38-.22.67-.49.9-.71.1-.09.25-.24.31-.27.3-.16.62-.31.93-.45l.45-.21c.21-.1.43-.16.65-.23.3-.09.59-.19.87-.3.21-.09.43-.14.65-.2.3-.08.6-.16.89-.27.08-.03.3-.05.47-.07.31-.03.71-.08,1.12-.21.23-.08.46-.16.69-.24.27-.1.54-.19.82-.27.61-.17,1.04-.51,1.35-.77.05-.04.09-.08.14-.12.08,0,.16.02.24.03.35.04.84.1,1.36,0l.54-.11c.32-.07.65-.13.97-.18.37-.03.55-.03.75-.03.22,0,.46,0,.9-.03.46-.03.68-.04.91-.06.21-.02.42-.03.84-.06.27-.01.36,0,.54.03.25.04.6.09,1.15.06.29,0,.57-.03.85-.06.23-.02.45-.05.69-.04.58-.01,1.1-.18,1.46-.31.02,0,.05-.02.07-.03.01,0,.03.02.04.03.33.22.84.55,1.5.63.59.07,1.09-.07,1.46-.17.04-.01.08-.02.12-.03.03.02.06.05.1.07.32.23.76.53,1.36.66.29.06.58.1.88.13.22.02.44.04.65.1.23.06.46.11.7.16.27.06.54.12.81.2.41.13.79.17,1.1.2.15.02.37.04.44.06.21.08.43.15.64.22.28.09.56.18.83.3.16.07.36.19.57.32.26.16.52.32.79.45.23.11.45.25.66.39.22.14.44.28.67.4.39.22.78.33,1.09.42.13.04.33.1.39.13.13.08.29.23.46.38.24.21.48.43.74.61.18.13.37.25.56.37.24.16.49.32.72.49.24.18.5.35.76.51.21.13.41.25.53.36.12.11.27.29.43.48.2.24.39.47.61.68.08.08.2.25.31.42.17.25.36.54.62.82.08.08.18.26.28.43.15.26.32.55.56.85.32.39.7.65.98.84.09.06.19.12.24.15l.26.35c.22.3.44.59.64.9.2.31.42.57.61.79.1.12.2.23.27.33,0,.06,0,.12,0,.18,0,.41.02.96.29,1.53.22.46.53.8.76,1.04.08.08.16.16.2.21.11.27.2.56.29.85.06.21.13.41.18.54.01.1,0,.21,0,.31-.01.35-.03.82.11,1.33.06.2.12.41.18.61.09.28.18.56.24.85.1.46.29.83.44,1.13.06.12.14.27.15.32.02.11,0,.33,0,.53-.01.3-.03.63,0,1.01.03.27.03.54.03.81,0,.24,0,.48.02.72.02.44.13.82.21,1.13.04.13.09.33.1.4,0,.35-.03.7-.05,1.06ZM91.27,75.75c-.04.06-.08.13-.13.19-.15.21-.34.5-.49.86,0-.04-.01-.08-.01-.15,0-.33.01-.5.03-.66.02-.23.04-.47.04-.93,0-.54-.06-.85-.13-1.16-.03-.16-.05-.22-.05-.44,0-.33.01-.49.03-.65.02-.24.04-.47.04-.94,0-.43,0-.64-.01-.86,0-.18-.01-.37-.01-.74,0-.53-.05-.83-.08-1.07-.02-.12-.04-.24-.04-.47.13-.23.35-.62.43-1.22.08-.03.16-.07.23-.11l.15.04c.33.13.75.28,1.41.28.09,0,.12,0,.19.03.03.7.24,1.16.37,1.47-.13.26-.38.76-.38,1.55,0,.42,0,.62,0,.83,0,.19,0,.38,0,.75,0,.45.01.67.03.89.01.17.02.35.02.7,0,.09,0,.16.01.25-.04.02-.07.03-.11.05-.69.4-1.18.88-1.54,1.51ZM101.38,60.47c-.1.33-.19.7-.19,1.31,0,.44,0,.72-.08.91-.04.1-.21.26-.4.44l-.23.22c-.26.26-.44.53-.58.76-.28-.07-.61-.14-.99-.14-.78,0-1.28.25-1.62.45-.26,0-.4-.02-.54-.03-.24-.03-.48-.05-.96-.05-.33,0-.58.03-.8.08-.17-.06-.36-.1-.55-.1-.25,0-.49.06-.7.16-.28-.08-.6-.14-1.07-.14l-.15-.04c-.33-.13-.75-.28-1.41-.28-.36,0-.66.05-.91.12-.29-.22-.64-.36-1.04-.36-.43,0-.82.17-1.12.43-.02,0-.04,0-.06,0-.66,0-1.07.14-1.41.28l-.16.04c-.18,0-.21,0-.36-.05-.07-.02-.15-.04-.22-.05-.02-.45-.12-.85-.2-1.17-.04-.14-.09-.32-.09-.39,0-.19,0-.39-.01-.58,0-.38,0-.76-.05-1.13-.02-.17,0-.34,0-.51,0-.01,0-.03,0-.04h10.55c.93,0,1.69-.76,1.69-1.69v-10.88c0-.93-.76-1.69-1.69-1.69h-10.89c-.93,0-1.69.76-1.69,1.69v4.33c-.21-.35-.45-.62-.64-.83-.06-.06-.12-.12-.16-.17,0-.06,0-.12,0-.18,0-.42-.02-1.05-.36-1.66-.23-.41-.51-.74-.74-1-.11-.13-.23-.26-.32-.4-.24-.37-.5-.73-.76-1.09l-.24-.33c-.16-.22-.33-.39-.51-.54.17-.3.27-.63.27-1,0-.2-.01-.4-.03-.6,0-.15-.02-.36-.03-.37.09-.22.27-.46.59-.78.28-.28.54-.46.79-.57,0,0,.02,0,.02,0,.04,0,.07.01.11.01.15,0,.3-.03.44-.07.09,0,.18,0,.28,0,.41,0,.68,0,.89.01.22,0,.44.01.88.01.58,0,.93-.08,1.25-.16.15-.04.21-.05.4-.05.21,0,.27.01.43.05.32.08.66.15,1.24.15.72,0,1.17-.18,1.53-.34l.13-.04.1.03c.37.18.83.37,1.56.37.4,0,.59,0,.79,0,.22,0,.44,0,.87,0,.83,0,1.34-.28,1.71-.49.36,0,.55,0,.74.01.22,0,.44.01.88.01.28,0,.38.02.56.05.25.04.55.09,1.11.09.5,0,.74-.02.99-.05.14-.01.27-.03.5-.03.06.04.11.08.17.12.23.16.52.37.88.52.24.1.5.17.76.24.09.02.19.04.27.08.17.21.33.56.43.81.07.17.15.34.24.51.08.16.2.4.21.52l-.04.1c-.15.35-.31.79-.31,1.49,0,.43,0,.64,0,.86,0,.2,0,.4,0,.8,0,.29-.02.44-.04.58-.04.24-.08.54-.08,1.08,0,.66.17,1.12.32,1.44-.09.21-.14.43-.14.67,0,.12.02.24.04.36-.05.24-.09.51-.09.86,0,.22-.02.29-.05.44-.08.32-.14.65-.14,1.22s.06.89.1,1.13c.03.17.05.27.05.54,0,.4,0,.61,0,.81,0,.21,0,.43,0,.86,0,.55.05.86.09,1.1.03.18.05.28.05.56,0,.18-.01.21-.05.36Z"/><path class="cls-1" d="M72.28,51.66c-1.11,0-2.09.51-2.76,1.29-.02,0-.03,0-.05,0-.4-.08-.6-.12-.8-.17-.22-.05-.43-.09-.87-.18-.55-.11-.86-.12-1.11-.13-.15,0-.3-.01-.59-.07-.27-.05-.36-.09-.53-.16-.23-.09-.55-.22-1.12-.33-.18-.04-.22-.05-.36-.13-.31-.16-.66-.33-1.26-.45-.58-.12-.93-.12-1.18-.12-.18,0-.27,0-.53-.05-.57-.11-.91-.12-1.16-.12-.18,0-.28,0-.55-.06-.01,0-.02,0-.03,0-.32-1.68-1.8-2.95-3.57-2.95-.26,0-.5.03-.75.08-.35-.21-.62-.31-.88-.41-.16-.06-.23-.08-.42-.21-.28-.18-.41-.29-.54-.4-.2-.17-.41-.34-.85-.63q-.09-.06-.18-.18c-.17-.24-.46-.64-1.08-1.05-.33-.22-.5-.33-.66-.45-.19-.13-.38-.27-.77-.52-.12-.08-.2-.14-.28-.19,0-.05.01-.09.01-.13,0-2.01-1.63-3.64-3.64-3.64s-3.64,1.63-3.64,3.64c0,.53.12,1.02.32,1.47-.01.01-.02.02-.02.02-.03.02-.06.04-.09.05-.31.17-.68.39-1.11.89-.35.41-.52.69-.66.97-.07.14-.1.2-.24.36-.4.46-.56.81-.7,1.13-.06.13-.06.15-.15.25-.3.34-.43.52-.57.71-.09.13-.19.25-.38.47-.33.1-.92.29-1.49.95-.02.02-.03.05-.05.07-.2-.03-.4-.06-.6-.06-2.01,0-3.64,1.63-3.64,3.64,0,1.46.86,2.71,2.11,3.29.34.41.66.64.93.82.03.02.06.04.15.13.23.33.34.5.45.67.12.19.25.38.51.75q.06.09.09.22c.07.28.18.75.61,1.37.3.43.51.65.73.88.12.13.2.2.36.43.33.48.57.72.75.89.13.12.2.19.35.42.34.48.59.72.77.9.12.12.19.19.34.4.1.15.12.18.17.34.11.33.25.69.6,1.2.16.22.2.31.27.47.1.23.24.53.57,1.01.05.07.1.13.14.2-.22.47-.36.99-.36,1.55,0,2.01,1.63,3.64,3.64,3.64s3.49-1.5,3.61-3.4c.02,0,.03-.01.05-.02h.11c.36,0,.82,0,1.46-.25.47-.18.69-.29.92-.41.14-.07.28-.14.57-.25.41-.16.61-.24.82-.33.17-.07.35-.15.7-.28.26-.1.4-.13.53-.16.24-.05.53-.11,1.03-.3.33-.12.5-.18.66-.23.22-.07.44-.14.88-.3.67-.26,1.02-.58,1.3-.86l.09-.07c.26-.1.39-.13.53-.16.08-.02.16-.04.26-.06.3.1.62.16.96.18-.06.46-.07.71-.08.95,0,.13,0,.25-.03.47-.24.27-.66.75-.79,1.62-.09.61-.05.98-.02,1.23.02.15.02.2,0,.38-.04.25-.06.33-.12.49-.07.22-.18.53-.26,1.08-.07.48-.08.73-.09.97,0,.16-.01.31-.06.62-.03.18-.04.21-.1.35-.13.3-.26.63-.34,1.2-.12.79.07,1.32.21,1.69-.03.18-.05.25-.1.39-.11.29-.21.59-.29,1.12h0c-1.4.51-2.41,1.84-2.41,3.41,0,2.01,1.63,3.64,3.64,3.64s3.64-1.63,3.64-3.64c0-1.22-.6-2.29-1.52-2.95.03-.2.05-.27.11-.42.11-.29.21-.59.28-1.12.11-.79-.07-1.32-.21-1.69.02-.14.04-.18.09-.31.13-.3.26-.63.34-1.2.07-.48.08-.73.09-.97,0-.16.01-.31.06-.62.04-.25.06-.33.12-.49.07-.22.18-.53.26-1.08.09-.61.05-.98.02-1.23-.01-.11-.02-.17,0-.27.24-.27.66-.75.78-1.62.07-.5.08-.76.08-1.01h0s.08.07.13.1c.12.1.24.2.45.41.21.21.31.33.4.45.15.18.3.37.63.7.3.3.45.44.61.58.13.12.26.24.5.48-.07.28-.12.57-.12.88,0,2.01,1.63,3.64,3.64,3.64s3.64-1.63,3.64-3.64c0-1.25-.64-2.36-1.6-3.02.02-.07.04-.14.07-.22.11-.28.21-.58.29-1.1l.24-1.54c.04-.25.08-.36.11-.48.07-.21.17-.51.24-1.03.11-.71-.01-1.17-.14-1.59.05-.33.08-.49.12-.65.05-.22.1-.44.16-.88.04-.25.08-.37.12-.49.07-.21.16-.5.24-1.02.06-.42.09-.63.11-.84.02-.16.04-.33.08-.62,1.34-.53,2.3-1.84,2.3-3.38,0-2.01-1.63-3.64-3.64-3.64ZM41.6,51.83c.11-.14.21-.28.44-.54.4-.46.56-.81.7-1.13.06-.14.06-.15.15-.25.35-.41.52-.69.67-.97.07-.14.1-.2.24-.36.05-.06.07-.07.07-.07.03-.02.06-.04.09-.05.31-.17.68-.39,1.11-.89.02-.02.03-.03.05-.06.21.04.43.07.66.07.71,0,1.37-.21,1.93-.56.04.03.08.05.12.08.33.22.5.33.66.45.19.13.38.27.77.52q.09.06.17.18c.17.24.45.64,1.08,1.05.28.18.41.29.54.4.2.17.41.34.85.63.17.11.31.19.44.26-.02.07-.05.14-.07.22,0,0-.02,0-.03,0-.5.08-.75.15-1,.22-.13.04-.26.08-.5.12-.32-.15-.91-.4-1.8-.26-.57.09-.89.22-1.19.35-.14.06-.19.08-.39.11-.25.04-.35.04-.52.04-.24,0-.56,0-1.12.08-.49.08-.73.14-.96.21-.16.04-.31.08-.63.13-.19.03-.23.03-.39.01-.25-.03-.64-.06-1.25.04-.65.1-1.06.35-1.37.57.22-.26.35-.43.47-.58ZM56.16,65.26l-.09.07c-.33.12-.5.18-.66.23-.22.07-.44.14-.88.3-.26.1-.4.13-.53.16-.24.05-.53.11-1.03.3-.41.16-.61.24-.82.33-.17.07-.35.15-.7.28-.47.18-.69.29-.91.41-.14.07-.28.14-.65.28h-.11c-.37,0-.82,0-1.46.25-.06.02-.1.04-.15.06-.62-.48-1.39-.78-2.23-.78-.2,0-.39.03-.58.06-.03-.04-.05-.06-.08-.1-.16-.22-.2-.31-.27-.47-.1-.23-.24-.53-.57-1.01-.1-.15-.12-.18-.17-.34-.11-.33-.25-.69-.6-1.2-.34-.48-.59-.72-.77-.9-.12-.12-.19-.19-.34-.4-.33-.48-.58-.72-.75-.89-.13-.12-.2-.19-.35-.42-.3-.43-.51-.65-.73-.88-.12-.13-.2-.2-.36-.43q-.06-.09-.09-.22c-.07-.28-.18-.75-.61-1.37-.23-.33-.34-.5-.45-.67-.08-.13-.17-.26-.3-.45.41-.4.72-.9.9-1.46.02,0,.03,0,.05-.01.23-.04.31-.03.48-.03.25,0,.59.03,1.16-.07.79-.13,1.25-.46,1.57-.71.16-.03.21-.02.35,0,.25.02.64.06,1.25-.04.49-.08.73-.14.96-.21.16-.04.31-.08.63-.13.25-.04.35-.04.52-.04.24,0,.56,0,1.11-.08.56-.09.88-.22,1.19-.35.12-.05.17-.07.29-.1.32.15.91.4,1.8.26.5-.08.75-.15,1-.22.15-.04.3-.08.6-.13.12-.02.22-.04.32-.05.67.74,1.62,1.21,2.69,1.21.23,0,.46-.03.68-.07.03.13.05.24.07.34.04.23.08.47.21.92.12.41.18.61.25.81.06.17.11.34.21.68.13.47.24.72.37.98.05.12.11.24.18.48.06.22.07.29.08.45.02.24.05.56.2,1.09.03.09.05.17.07.24-.72.67-1.18,1.61-1.18,2.67,0,.24.03.48.07.71-.39.21-.64.44-.84.66ZM65.59,65.67s0,0,0,0c-.08-.29-.24-.84-.82-1.42-.03-.04-.11-.17-.16-.26-.15-.26-.3-.46-.46-.64-.23-1.48-1.33-2.66-2.76-2.99-.03-.08-.06-.18-.09-.3-.06-.22-.07-.29-.08-.45-.02-.24-.05-.56-.2-1.09-.13-.47-.24-.72-.37-.98-.05-.12-.11-.24-.18-.48-.12-.41-.18-.61-.25-.81-.06-.17-.11-.34-.21-.68-.08-.29-.11-.44-.14-.6-.03-.16-.06-.33-.12-.56.04,0,.09,0,.13,0,.18,0,.28,0,.55.06.58.12.93.12,1.18.12.18,0,.27,0,.54.05.18.04.22.05.36.13.31.16.66.33,1.26.45.27.05.36.09.53.16.23.09.55.22,1.12.33.55.11.86.12,1.11.13.15,0,.3.01.59.07.42.08.62.13.83.17.21.04.42.09.83.17.23.85.75,1.58,1.47,2.06-.04.27-.06.44-.08.6-.02.18-.04.35-.09.71-.04.25-.08.37-.12.49-.07.21-.16.5-.24,1.02-.05.33-.08.49-.12.65-.05.22-.1.43-.16.88-.11.71.01,1.17.14,1.59-.04.25-.08.36-.11.48-.07.21-.17.51-.24,1.03l-.24,1.53c-.03.21-.05.26-.11.41-.1.26-.19.53-.27.97-.17-.17-.28-.27-.4-.38-.13-.12-.26-.24-.5-.49-.21-.21-.31-.33-.4-.45-.15-.18-.3-.37-.63-.7-.33-.33-.5-.48-.68-.62-.11-.09-.22-.18-.42-.38Z"/></svg>